<?xml version="1.0" encoding="utf-8"?>
<!-- Generator: Adobe Illustrator 22.0.1, SVG Export Plug-In . SVG Version: 6.00 Build 0)  -->
<svg version="1.1" id="Слой_1" xmlns="http://www.w3.org/2000/svg" xmlns:xlink="http://www.w3.org/1999/xlink" x="0px" y="0px"
	 viewBox="0 0 250 250" style="enable-background:new 0 0 250 250;" xml:space="preserve">
<style type="text/css">
	.st0{fill:url(#SVGID_1_);}
	.st1{fill:#9D9D9D;}
	.st2{fill:url(#SVGID_2_);}
	.st3{fill:url(#SVGID_3_);}
	.st4{fill:url(#SVGID_4_);}
	.st5{fill:url(#SVGID_5_);}
	.st6{fill:url(#SVGID_6_);}
	.st7{fill:url(#SVGID_7_);}
	.st8{fill:url(#SVGID_8_);}
	.st9{fill:url(#SVGID_9_);}
	.st10{fill:#175E7C;}
	.st11{fill:#18759A;}
	.st12{fill:#1B97C8;}
	.st13{fill:#0E4054;}
	.st14{fill:#155873;}
	.st15{fill:url(#SVGID_10_);}
	.st16{fill:#676868;}
	.st17{opacity:0.42;fill:#FFFFFF;}
</style>
<g>
	<linearGradient id="SVGID_1_" gradientUnits="userSpaceOnUse" x1="98.2066" y1="70.1072" x2="122.7156" y2="70.1072">
		<stop  offset="0" style="stop-color:#B2B2B2"/>
		<stop  offset="0.6613" style="stop-color:#D8D8D8"/>
		<stop  offset="1" style="stop-color:#B2B2B2"/>
	</linearGradient>
	<rect x="97.5" y="56.2" class="st0" width="25.5" height="27.7"/>
	<path class="st1" d="M135.3,116.2L89.8,81.4c-0.9,0.7-1.7,1.6-2.4,2.6c-2.5,4.1-3,8.5-3.2,12.3c-0.2,2.8-0.1,12.1,0,17
		c0,2,0.8,3.9,2.3,5.3c10.4,9.9,41.4,39.3,47.2,44.4v-38.7C133.6,124.2,133,119.7,135.3,116.2z"/>
	<linearGradient id="SVGID_2_" gradientUnits="userSpaceOnUse" x1="110.3567" y1="121.26" x2="137.543" y2="93.7748">
		<stop  offset="0" style="stop-color:#B2B2B2"/>
		<stop  offset="1" style="stop-color:#D8D8D8"/>
	</linearGradient>
	<path class="st2" d="M142.7,112c8.2-0.9,31.5-3.7,41.8-5c-7.5-4.9-48.5-27.8-50.7-29.2c-2.3-1.6-4.6-3-14.6-1.8
		c-10.1,1.1-16.5,1.6-20.1,2.1c-2.7,0.3-6.5,1.2-9.3,3.4l45.5,34.8C136.6,114.2,138.8,112.4,142.7,112z"/>
	<linearGradient id="SVGID_3_" gradientUnits="userSpaceOnUse" x1="123.2471" y1="162.1119" x2="173.3226" y2="122.3461">
		<stop  offset="0" style="stop-color:#B2B2B2"/>
		<stop  offset="1" style="stop-color:#D8D8D8"/>
	</linearGradient>
	<path class="st3" d="M185.4,107.6c0,0-0.3-0.2-0.9-0.6c-10.3,1.3-33.5,4.1-41.8,5c-3.9,0.4-6.1,2.1-7.4,4.2l0,0
		c-2.3,3.5-1.6,8-1.6,8V163c0.2,0.2,0.4,0.4,0.5,0.4c3.2,2.5,6.6,2.7,11.9,2.3c5.3-0.5,24.5-4.1,24.5-4.1l17.8-24.4
		c0-4.7,0-22,0-23.8C188.3,111.5,188.1,109.3,185.4,107.6z"/>
	<linearGradient id="SVGID_4_" gradientUnits="userSpaceOnUse" x1="141.7183" y1="167.6961" x2="148.0263" y2="159.3605">
		<stop  offset="0" style="stop-color:#9D9D9D;stop-opacity:0"/>
		<stop  offset="1" style="stop-color:#9D9D9D"/>
	</linearGradient>
	<path class="st4" d="M169.1,158.4l-18.8-27.6l-16.7,20.3V163c0.2,0.2,0.4,0.4,0.5,0.4c3.2,2.5,6.6,2.7,11.9,2.3
		c3.7-0.3,14.5-2.3,20.4-3.4C168.6,160.1,169.1,158.4,169.1,158.4z"/>
	<linearGradient id="SVGID_5_" gradientUnits="userSpaceOnUse" x1="72.2228" y1="43.7522" x2="146.9409" y2="43.7522">
		<stop  offset="0" style="stop-color:#B2B2B2"/>
		<stop  offset="1" style="stop-color:#D8D8D8"/>
	</linearGradient>
	<path class="st5" d="M75.7,47.2h67.9c1.9,0,3.4-1.5,3.4-3.4l0,0c0-1.9-1.5-3.4-3.4-3.4H75.7c-1.9,0-3.4,1.5-3.4,3.4l0,0
		C72.2,45.6,73.8,47.2,75.7,47.2z"/>
	<linearGradient id="SVGID_6_" gradientUnits="userSpaceOnUse" x1="109.5818" y1="44.648" x2="109.5818" y2="53.8529">
		<stop  offset="0" style="stop-color:#B2B2B2"/>
		<stop  offset="1" style="stop-color:#D8D8D8"/>
	</linearGradient>
	<polygon class="st6" points="75.6,47.2 143.6,47.2 122.7,56.3 97.5,56.3 	"/>
	<linearGradient id="SVGID_7_" gradientUnits="userSpaceOnUse" x1="156.3395" y1="157.8446" x2="173.4961" y2="136.447">
		<stop  offset="0" style="stop-color:#B2B2B2"/>
		<stop  offset="1" style="stop-color:#F4F4F4"/>
	</linearGradient>
	<path class="st7" d="M190.6,142.9c0,12.3-10,22.3-22.3,22.3c-2.8,0-4.1,4.8-4.1,4.8s-7.2-6.5-14.3-14.5c-3.7-4.2-3.8-8.9-3.8-12.6
		c0-12.3,10-22.3,22.3-22.3c9.5,0,12.1,4.9,23.5,15.2C192.8,138.3,190.6,140.1,190.6,142.9z"/>
	<linearGradient id="SVGID_8_" gradientUnits="userSpaceOnUse" x1="158.0807" y1="154.8632" x2="202.6064" y2="154.8632">
		<stop  offset="0" style="stop-color:#B2B2B2"/>
		<stop  offset="1" style="stop-color:#D8D8D8"/>
	</linearGradient>
	<circle class="st8" cx="180.3" cy="154.9" r="22.3"/>
	<linearGradient id="SVGID_9_" gradientUnits="userSpaceOnUse" x1="161.9436" y1="154.8632" x2="198.7435" y2="154.8632">
		<stop  offset="0" style="stop-color:#1B97C8"/>
		<stop  offset="1" style="stop-color:#4FAFD5"/>
	</linearGradient>
	<circle class="st9" cx="180.3" cy="154.9" r="18.4"/>
	<g>
		<circle class="st10" cx="179.5" cy="153" r="16.1"/>
		<circle class="st11" cx="179" cy="152.2" r="14.7"/>
		
			<ellipse transform="matrix(0.7071 -0.7071 0.7071 0.7071 -54.6619 170.3609)" class="st12" cx="178.3" cy="151.2" rx="9.6" ry="9.6"/>
		
			<ellipse transform="matrix(0.7071 -0.7071 0.7071 0.7071 -54.3712 169.7615)" class="st13" cx="177.7" cy="150.5" rx="7.6" ry="7.6"/>
		<path class="st14" d="M183.4,150.2c0,3.4-2.7,6.1-6.1,6.1c-3.4,0-6.1-2.7-6.1-6.1c0-3.4,2.7-6.1,6.1-6.1
			C180.7,144,183.4,146.8,183.4,150.2z"/>
		<g>
			<path class="st14" d="M180,139.6c0,0.7-0.6,1.3-1.3,1.3s-1.3-0.6-1.3-1.3s0.6-1.3,1.3-1.3S180,138.9,180,139.6z"/>
			<path class="st14" d="M180,163.5c0,0.7-0.6,1.3-1.3,1.3s-1.3-0.6-1.3-1.3s0.6-1.3,1.3-1.3S180,162.8,180,163.5z"/>
			<circle class="st14" cx="190.6" cy="151.6" r="1.3"/>
			<path class="st14" d="M166.7,152.9c-0.7,0-1.3-0.6-1.3-1.3s0.6-1.3,1.3-1.3c0.7,0,1.3,0.6,1.3,1.3S167.5,152.9,166.7,152.9z"/>
			<path class="st14" d="M186.2,160.9c-0.5-0.5-0.5-1.3,0-1.9c0.5-0.5,1.3-0.5,1.9,0c0.5,0.5,0.5,1.3,0,1.9
				C187.5,161.4,186.7,161.4,186.2,160.9z"/>
			<path class="st14" d="M169.3,144c-0.5-0.5-0.5-1.3,0-1.9c0.5-0.5,1.3-0.5,1.9,0c0.5,0.5,0.5,1.3,0,1.9S169.8,144.6,169.3,144z"/>
			<path class="st14" d="M169.3,159.1c0.5-0.5,1.3-0.5,1.9,0c0.5,0.5,0.5,1.3,0,1.9s-1.3,0.5-1.9,0
				C168.8,160.4,168.8,159.6,169.3,159.1z"/>
			<path class="st14" d="M186.2,142.2c0.5-0.5,1.3-0.5,1.9,0c0.5,0.5,0.5,1.3,0,1.9c-0.5,0.5-1.3,0.5-1.9,0
				C185.7,143.5,185.7,142.7,186.2,142.2z"/>
			<path class="st14" d="M167.1,155c0.7-0.3,1.4,0,1.7,0.7c0.3,0.7,0,1.4-0.7,1.7c-0.7,0.3-1.4,0-1.7-0.7
				C166.2,156,166.5,155.2,167.1,155z"/>
			<path class="st14" d="M189.2,145.7c0.7-0.3,1.4,0,1.7,0.7c0.3,0.7,0,1.4-0.7,1.7c-0.7,0.3-1.4,0-1.7-0.7
				C188.2,146.8,188.5,146,189.2,145.7z"/>
			<path class="st14" d="M168.2,145.7c0.7,0.3,1,1.1,0.7,1.7c-0.3,0.7-1.1,1-1.7,0.7c-0.7-0.3-1-1.1-0.7-1.7
				C166.7,145.7,167.5,145.4,168.2,145.7z"/>
			<path class="st14" d="M190.2,155c0.7,0.3,1,1.1,0.7,1.7c-0.3,0.7-1.1,1-1.7,0.7c-0.7-0.3-1-1.1-0.7-1.7
				C188.8,155,189.5,154.7,190.2,155z"/>
			<path class="st14" d="M175.1,140.1c0.3,0.7,0,1.4-0.7,1.7c-0.7,0.3-1.4,0-1.7-0.7c-0.3-0.7,0-1.4,0.7-1.7
				C174.1,139.1,174.9,139.4,175.1,140.1z"/>
			<path class="st14" d="M184.6,162c0.3,0.7,0,1.4-0.7,1.7c-0.7,0.3-1.4,0-1.7-0.7c-0.3-0.7,0-1.4,0.7-1.7
				C183.6,161,184.3,161.3,184.6,162z"/>
			<path class="st14" d="M184.4,141c-0.3,0.7-1,1-1.7,0.7c-0.7-0.3-1-1-0.7-1.7c0.3-0.7,1-1,1.7-0.7
				C184.4,139.6,184.7,140.3,184.4,141z"/>
			<path class="st14" d="M175.4,163.1c-0.3,0.7-1,1-1.7,0.7c-0.7-0.3-1-1-0.7-1.7c0.3-0.7,1-1,1.7-0.7
				C175.3,161.7,175.7,162.4,175.4,163.1z"/>
		</g>
		<linearGradient id="SVGID_10_" gradientUnits="userSpaceOnUse" x1="179.1271" y1="150.6855" x2="180.1976" y2="153.2736">
			<stop  offset="0" style="stop-color:#1B97C8"/>
			<stop  offset="1" style="stop-color:#4FAFD5"/>
		</linearGradient>
		<path class="st15" d="M181.8,146.8c0.9,2.9,0.2,8.7-5.2,8.7c2.5,0.7,4.6-0.7,5.8-2.9C183.2,151,183,148,181.8,146.8z"/>
	</g>
	<path class="st16" d="M192.4,141c2.8,3.2,4.5,7.4,4.5,12.1c0,10.2-8.2,18.4-18.4,18.4c-4.6,0-8.8-1.7-12.1-4.5
		c3.4,3.9,8.3,6.3,13.9,6.3c10.2,0,18.4-8.2,18.4-18.4C198.7,149.3,196.3,144.4,192.4,141z"/>
	<path class="st17" d="M194.9,145.9c3.5,6.7,1.6,18.5-8.6,23c-9.3,4.2-17.7-1.5-17.7-1.5s10.4,4.6,20.2-4.5
		C196.8,155.6,194.9,145.9,194.9,145.9z"/>
</g>
</svg>
