<?xml version="1.0" encoding="utf-8"?>
<!-- Generator: Adobe Illustrator 22.0.1, SVG Export Plug-In . SVG Version: 6.00 Build 0)  -->
<svg version="1.1" id="Слой_1" xmlns="http://www.w3.org/2000/svg" xmlns:xlink="http://www.w3.org/1999/xlink" x="0px" y="0px"
	 viewBox="0 0 250 250" style="enable-background:new 0 0 250 250;" xml:space="preserve">
<style type="text/css">
	.st0{fill:#FFE001;}
	.st1{fill:none;stroke:#333333;stroke-width:5.5512;stroke-linejoin:round;stroke-miterlimit:10;}
	.st2{fill:#333333;}
	.st3{font-family:'Raleway-Bold';}
	.st4{font-size:37.8765px;}
	.st5{font-size:21.5398px;}
	.st6{opacity:0.5;}
	.st7{fill:#FFFFFF;}
	.st8{opacity:0.3;fill:#FFFFFF;}
	.st9{fill:#4D4D4D;}
</style>
<g>
	
		<image style="overflow:visible;opacity:0.3;" width="180" height="180" xlink:href="88545E2F.png"  transform="matrix(1 0 0 1 36.6122 29.6122)">
	</image>
	<g>
		<g>
			
				<ellipse transform="matrix(0.7071 -0.7071 0.7071 0.7071 -46.8188 122.6605)" class="st0" cx="124.7" cy="117.8" rx="87.9" ry="87.9"/>
			<path class="st0" d="M196.3,66.9c2.9,8.8,4.5,18.2,4.5,28c0,48.6-39.4,87.9-87.9,87.9c-29.6,0-55.7-14.6-71.7-37
				c11.7,34.8,44.6,60,83.4,60c48.6,0,87.9-39.4,87.9-87.9C212.6,98.8,206.6,81.3,196.3,66.9z"/>
			
				<ellipse transform="matrix(0.7071 -0.7071 0.7071 0.7071 -46.8188 122.6604)" class="st1" cx="124.7" cy="117.8" rx="79.1" ry="79.1"/>
			<g>
				<path class="st2" d="M87.4,112.2c-3.1,2.4-6.8,3.9-10.6,4.4c-0.1,1.6-0.3,3.2-0.7,4.9c5.3-0.4,10.4-2.4,14.6-5.7
					C89.2,114.8,88.1,113.6,87.4,112.2z"/>
				<path class="st2" d="M73.1,121.5c2.9-9.4-1.7-19.2-10.6-23.1l-11.4,36.1C60.7,136.5,70.2,131,73.1,121.5z"/>
				<polygon class="st2" points="146.8,105.4 151.6,106.5 154.3,94.4 153.4,94.2 149,95.6 				"/>
				<polygon class="st2" points="128.4,102.3 128,102.3 60.1,87.2 59.3,91.1 87.4,97.3 87.4,97.3 99.1,99.9 143,109.7 145.9,96.6 
									"/>
				<polygon class="st2" points="65.2,64.6 60.7,84.5 128.2,99.5 159.3,89.3 160.1,85.7 				"/>
				<path class="st2" d="M89.5,100.6l-1.3,5.7c-0.4,1.7-0.1,3.4,0.8,4.8c0.9,1.4,2.3,2.4,4,2.8c0.5,0.1,0.9,0.2,1.4,0.2
					c2.9,0,5.6-2.1,6.2-5l1.3-5.7L89.5,100.6z"/>
			</g>
			<path class="st2" d="M47,98.4c2.4-1.1,5.1-1.7,7.9-1.7c10.5,0,19.1,8.6,19.1,19.1c0,10.5-8.6,19.1-19.1,19.1
				c-2.8,0-5.4-0.6-7.8-1.7C43.4,124.5,44.4,106.5,47,98.4z"/>
			<text transform="matrix(1 0 0 1 99.6372 148.8823)" class="st2 st3 st4">CCTV</text>
			<text transform="matrix(1 0 0 1 87.0459 168.4775)" class="st2 st3 st5">24 hours</text>
			<g class="st6">
				<path class="st7" d="M37.2,127.2c0.9,8.2,2.9,16.1,5.9,23.5L157.5,36.3c-7.4-3-15.3-5-23.5-5.9L37.2,127.2z"/>
				<path class="st7" d="M175.6,46.2c-2.9-2.1-5.9-3.9-9-5.6L47.3,159.8c1.7,3.1,3.6,6.1,5.6,9L175.6,46.2z"/>
				<path class="st7" d="M106.7,203.9L210.7,99.9c-0.8-3.9-1.9-7.7-3.2-11.5L95.2,200.7C98.9,202,102.8,203.1,106.7,203.9z"/>
			</g>
			
				<ellipse transform="matrix(0.7071 -0.7071 0.7071 0.7071 -28.2056 82.8838)" class="st8" cx="85.9" cy="75.5" rx="34.1" ry="14.7"/>
			<g>
				<path class="st9" d="M126.9,38.7c0,1.3-1,2.3-2.3,2.3c-1.3,0-2.3-1-2.3-2.3s1-2.3,2.3-2.3C125.9,36.4,126.9,37.5,126.9,38.7z"/>
				<rect x="124" y="36.2" class="st2" width="1.3" height="5"/>
			</g>
			<g>
				<path class="st9" d="M126.3,198.6c-0.9,0.9-2.3,0.9-3.2,0c-0.9-0.9-0.9-2.3,0-3.2c0.9-0.9,2.3-0.9,3.2,0
					C127.2,196.3,127.2,197.7,126.3,198.6z"/>
				
					<rect x="122.2" y="196.3" transform="matrix(0.7071 -0.7071 0.7071 0.7071 -102.7718 145.837)" class="st2" width="5" height="1.3"/>
			</g>
			<g>
				<g>
					<path class="st9" d="M201.5,117.7c0-1.3,1-2.3,2.3-2.3s2.3,1,2.3,2.3c0,1.3-1,2.3-2.3,2.3S201.5,119,201.5,117.7z"/>
					<rect x="203.1" y="115.2" class="st2" width="1.3" height="5"/>
				</g>
				<g>
					<path class="st9" d="M43.9,119.4c-0.9-0.9-0.9-2.3,0-3.2s2.3-0.9,3.2,0c0.9,0.9,0.9,2.3,0,3.2
						C46.3,120.3,44.8,120.3,43.9,119.4z"/>
					
						<rect x="44.9" y="115.2" transform="matrix(0.7071 -0.7071 0.7071 0.7071 -69.923 66.6775)" class="st2" width="1.3" height="5"/>
				</g>
			</g>
		</g>
	</g>
</g>
</svg>
