<?xml version="1.0" encoding="utf-8"?>
<!-- Generator: Adobe Illustrator 22.0.1, SVG Export Plug-In . SVG Version: 6.00 Build 0)  -->
<svg version="1.1" id="Слой_1" xmlns="http://www.w3.org/2000/svg" xmlns:xlink="http://www.w3.org/1999/xlink" x="0px" y="0px"
	 viewBox="0 0 250 250" style="enable-background:new 0 0 250 250;" xml:space="preserve">
<style type="text/css">
	.st0{fill:url(#SVGID_1_);}
	.st1{fill:#1C242E;}
	.st2{fill:#F9D716;}
	.st3{font-family:'Gilroy-ExtraBold';}
	.st4{font-size:20px;}
	.st5{letter-spacing:3;}
	.st6{font-size:10px;}
	.st7{letter-spacing:1;}
</style>
<g>
	<g>
		<linearGradient id="SVGID_1_" gradientUnits="userSpaceOnUse" x1="109.1026" y1="15.3096" x2="136.1027" y2="173.3096">
			<stop  offset="0" style="stop-color:#F9D716"/>
			<stop  offset="1" style="stop-color:#F9B700"/>
		</linearGradient>
		<circle class="st0" cx="123.9" cy="101.6" r="88.7"/>
		<path class="st1" d="M123.9,192.9c-50.3,0-91.2-40.9-91.2-91.2s40.9-91.2,91.2-91.2c50.3,0,91.2,40.9,91.2,91.2
			S174.2,192.9,123.9,192.9z M123.9,15.4c-47.6,0-86.2,38.7-86.2,86.2c0,47.6,38.7,86.2,86.2,86.2c47.6,0,86.2-38.7,86.2-86.2
			C210.1,54.1,171.4,15.4,123.9,15.4z"/>
	</g>
	<path class="st1" d="M38.1,124.5c10.1,38,44.7,65.9,85.8,65.9c41.2,0,75.8-27.9,85.8-65.9H38.1z"/>
	<text transform="matrix(1 0 0 1 96.799 150.8449)"><tspan x="0" y="0" class="st2 st3 st4 st5">cctv</tspan><tspan x="-12.4" y="15" class="st2 st3 st6 st7">in operation</tspan></text>
	<g>
		<path class="st1" d="M83.8,99.9l-9.1-9.1c-0.8-0.8-2.1-0.8-2.9,0l-2.3,2.3c-0.8,0.8-0.8,2.1,0,2.9l9.1,9.1c0.8,0.8,2.1,0.8,2.9,0
			l2.3-2.3C84.6,102,84.6,100.7,83.8,99.9z"/>
		<path class="st1" d="M174.8,83.4c-2.4,0-4.3,1.9-4.3,4.3v2.9h-17.1c-1.5-5.1-6.3-8.8-11.8-8.6c-2.2,0.1-4.3,0.8-6.1,1.9
			l-12.4-11.6l21.3-20.9c0.9-0.9,1.1-2.7,0-3.2c-4.6-1.9-18.3-7.2-26-9.5c-1.2-0.4-1.8-0.6-3.1,0.5L71.9,82.2
			c-0.9,0.9-0.9,2.3,0,3.2l17.5,17.5c0.9,0.9,2.3,0.9,3.2,0L116,79.4l14.1,13.2c-0.1,0.6-0.1,1.1-0.1,1.7
			c0.2,6.6,5.7,11.8,12.3,11.5c4-0.1,7.4-2.2,9.5-5.3h18.7v2.9c0,2.4,1.9,4.3,4.3,4.3h8.5V83.4H174.8z"/>
		<path class="st1" d="M70.2,98.8c-1.4,1.4-1.4,3.6,0,5c1.4,1.4,3.6,1.4,5,0L70.2,98.8z"/>
		<path class="st1" d="M120.4,34.9l4.8-4.2c0.4-0.4,1-0.4,1.4,0l13.6,10.8c0.9,0.8,0.1,2.3-1,1.9l-18.4-6.7
			C120,36.5,119.8,35.5,120.4,34.9z"/>
	</g>
</g>
</svg>
