<?xml version="1.0" encoding="utf-8"?>
<!-- Generator: Adobe Illustrator 22.0.1, SVG Export Plug-In . SVG Version: 6.00 Build 0)  -->
<svg version="1.1" id="Слой_1" xmlns="http://www.w3.org/2000/svg" xmlns:xlink="http://www.w3.org/1999/xlink" x="0px" y="0px"
	 viewBox="0 0 250 250" style="enable-background:new 0 0 250 250;" xml:space="preserve">
<style type="text/css">
	.st0{fill:url(#SVGID_1_);}
	.st1{fill:#1C242E;}
	.st2{fill:#F9D716;}
	.st3{font-family:'Gilroy-ExtraBold';}
	.st4{font-size:21px;}
	.st5{letter-spacing:3;}
	.st6{font-size:12px;}
	.st7{letter-spacing:2;}
</style>
<g>
	<g>
		<linearGradient id="SVGID_1_" gradientUnits="userSpaceOnUse" x1="124.9584" y1="25.9205" x2="120.9585" y2="198.9204">
			<stop  offset="0" style="stop-color:#F9D716"/>
			<stop  offset="1" style="stop-color:#F9B700"/>
		</linearGradient>
		<path class="st0" d="M112.1,202.3L34.8,125c-6-6-6-15.7,0-21.6l77.3-77.3c6-6,15.7-6,21.6,0l77.3,77.3c6,6,6,15.7,0,21.6
			l-77.3,77.3C127.8,208.3,118.1,208.3,112.1,202.3z"/>
		<path class="st1" d="M122.9,209.3c-4.6,0-9.1-1.7-12.6-5.2L33,126.8c-3.4-3.4-5.2-7.8-5.2-12.6s1.9-9.2,5.2-12.6l77.3-77.3
			c6.9-6.9,18.2-6.9,25.2,0l77.3,77.3c6.9,6.9,6.9,18.2,0,25.2l-77.3,77.3C132,207.5,127.5,209.3,122.9,209.3z M113.9,200.5
			c5,5,13.1,5,18.1,0l77.3-77.3c5-5,5-13.1,0-18.1L132,27.8c-5-5-13.1-5-18.1,0l-77.3,77.3c-2.4,2.4-3.7,5.6-3.7,9.1
			c0,3.4,1.3,6.6,3.7,9L113.9,200.5z"/>
	</g>
	<g>
		<path class="st1" d="M164.2,83.3l-3.9-0.4c-0.5-0.1-1,0.2-1.1,0.7l-3.4,9.1c-0.2,0.5,0,1,0.4,1.3l3.2,2.3c0.6,0.4,1.4,0.2,1.7-0.5
			l4-11C165.3,84.1,164.9,83.4,164.2,83.3z"/>
		<path class="st1" d="M156.7,76.8l-9,3.5c-0.4,0.2-0.7,0.4-0.9,0.8l-4.5,9.3c-0.4,0.9,0,1.9,0.9,2.3l7.4,2.8
			c0.9,0.3,1.8-0.1,2.1-0.9l6.1-15.7C159.4,77.6,158,76.3,156.7,76.8z"/>
		<path class="st1" d="M136.5,90.1l-42.3-7.2c-0.8-0.1-1.7,0.3-2.1,1l-1.4,5.1c-0.5,1.5,0.5,3.1,2,3.3c2.1,0.3,5,0.8,8.4,1.3
			l-3.4,9.5c-3.6,0.8-6.2,4-6.2,7.9c0,4.3,3.4,7.9,7.7,8.1l5.4,13.2c0.4,1,1.5,1.4,2.5,1l2.8-1.1c1-0.4,1.4-1.5,1-2.5l-5.4-13.2
			c1.3-1.4,2.2-3.4,2.2-5.5c0-3-1.6-5.5-4-6.9l3.4-9.5c9.6,1.5,20.2,3.2,23.1,3.6c3.7,0.4,5.9-4.1,7.2-6.1
			C138,91.1,137.8,90.2,136.5,90.1z"/>
		<path class="st1" d="M156.8,70.6c0.7-1.3-47-12.3-50.6-12.9c-3.6-0.6-6.1,1.1-7.3,4.1c-1.2,3-3.9,12.6-4.7,14.4
			c-0.7,1.5-0.3,3.1,1.3,3.3c9,1.5,34.4,6,38.9,6.6c3.5,0.5,6.2-0.3,9.6-6.8C146.2,75.2,153.7,76,156.8,70.6z"/>
	</g>
	<path class="st1" d="M34.8,125l77.3,77.3c6,6,15.7,6,21.6,0L211,125H34.8z"/>
	<text transform="matrix(1 0 0 1 96.4058 154.6864)"><tspan x="0" y="0" class="st2 st3 st4 st5">cctv</tspan><tspan x="-2.3" y="14.4" class="st2 st3 st6 st7">cameras</tspan></text>
</g>
</svg>
