<svg height="512" viewBox="0 0 64 64" width="512" xmlns="http://www.w3.org/2000/svg"><path d="m53 20v33a2.006 2.006 0 0 1 -2 2h-46a2.006 2.006 0 0 1 -2-2v-33z" fill="#ffb655"/><path d="m39.39 55h-4.02a18.014 18.014 0 0 1 -4.37-11.75v-9.25l2-.86v8.11a18 18 0 0 0 6.39 13.75z" fill="#ffa733"/><path d="m33 12h20v8h-20z" fill="#ff9811"/><path d="m47.59 3.89 5.41 8.11h-50l5.41-8.11a1.981 1.981 0 0 1 1.66-.89h35.86a1.981 1.981 0 0 1 1.66.89z" fill="#ffb655"/><path d="m3 12h20v8h-20z" fill="#ff9811"/><path d="m33 20v8l-5-4-5 4v-8-8h10z" fill="#e6e7e8"/><path d="m61 32v9.25a18.039 18.039 0 0 1 -6.88 14.16l-7.12 5.59-7.12-5.59a6.258 6.258 0 0 1 -.49-.41 18 18 0 0 1 -6.39-13.75v-9.25l14-6 6 2.57z" fill="#ff5023"/><path d="m53 32.92-6-2.57-10 4.29v6.61a13.911 13.911 0 0 0 5.35 11.01l3.49 2.74 1.16.91 1.16-.91 3.49-2.74a14.19 14.19 0 0 0 1.35-1.21 13.893 13.893 0 0 0 4-9.8v-6.61z" fill="#ffd422"/><path d="m46 46a1 1 0 0 1 -.707-.293l-3-3 1.414-1.414 2.293 2.293 5.293-5.293 1.414 1.414-6 6a1 1 0 0 1 -.707.293z" fill="#ff5023"/></svg>