<?xml version="1.0" encoding="UTF-8"?>
<svg viewBox="0 0 521.87695 373.06992" xmlns="http://www.w3.org/2000/svg">
 <defs>
  <linearGradient id="d" x2="0" y1="394.52" y2="403.63" gradientUnits="userSpaceOnUse">
   <stop stop-color="#3a3f3f" offset="0"/>
   <stop stop-color="#6d7677" offset="1"/>
  </linearGradient>
  <linearGradient id="c" x2="0" y1="394.03" y2="402.15" gradientUnits="userSpaceOnUse">
   <stop stop-color="#94a1a9" offset="0"/>
   <stop stop-color="#bfc7cc" offset="1"/>
  </linearGradient>
  <linearGradient id="e" x2="0" y1="393.46" y2="400.73" gradientUnits="userSpaceOnUse">
   <stop stop-color="#b0b0b0" offset="0"/>
   <stop stop-color="#eae8e3" offset="1"/>
  </linearGradient>
  <radialGradient id="a" cx="-181.2" cy="579.67" r="7.7024" gradientUnits="userSpaceOnUse">
   <stop stop-color="#d95c8b" offset="0"/>
   <stop stop-color="#9e2352" offset="1"/>
  </radialGradient>
  <radialGradient id="b" cx="-1065.6" cy="758.38" r="322.32" gradientTransform="matrix(2.6707 0 0 .32063 3147.1 224.11)" gradientUnits="userSpaceOnUse">
   <stop stop-color="#9b9b9b" offset="0"/>
   <stop stop-color="#fff" offset="1"/>
  </radialGradient>
 </defs>
 <g transform="translate(-230.49 -357.26)">
  <path d="m242.13 357.76 495.81 1.043c4.355 9e-3 7.7854 3.5492 7.8611 7.9565l6.039 351.59c0.0493 2.8688-1.7883 8.0017-6.6458 10.401-1.7795 0.87898-4.0358 1.5788-7.2543 1.5788h-499.59c-4.3551 0-7.8611-3.5486-7.8611-7.9564v-353.47c0-2.0317 1.4329-4.6706 3.634-6.6884 3.9657-3.6355 5.6527-4.4589 8.0028-4.454z" fill="#999"/>
  <path d="m242.93 357.26h501.54a7.8918 7.8918 0 0 1 7.8918 7.8918v352.72a7.8918 7.8918 0 0 1 -7.8918 7.8918h-501.54a7.8918 7.8918 0 0 1 -7.8918 -7.8918v-352.72a7.8918 7.8918 0 0 1 7.8918 -7.8918" fill="#eae8e3"/>
  <path d="m311.74 379.96c-27.111 0-48.937 21.827-48.937 48.938s21.826 48.937 48.937 48.937h440.63v-97.875h-440.63z" fill="url(#b)"/>
  <path d="m704.21 393.46c-0.11261 0-0.20122 1.1047-0.20122 2.4688v65.937c0 1.3641 0.0886 2.4375 0.20122 2.4375h35.531v-70.844h-35.531z" fill="#b5b5b5"/>
  <path d="m716.84 393.46c-0.11261 0-0.20122 1.1047-0.20122 2.4688v65.937c0 1.3641 0.0886 2.4375 0.20122 2.4375h35.531v-70.844h-35.531z" fill="url(#e)"/>
  <path d="m321.69 393.46c-1.2308 0-2.1994 1.1047-2.1994 2.4688v65.937c0 1.3641 0.9686 2.4375 2.1994 2.4375h388.37v-70.844h-388.37z" fill="url(#c)"/>
  <path d="m399.71 393.43 4.7812 7.5312c-2.169 1.3626-3.625 3.7807-3.625 6.5312 0 4.2539 3.4648 7.6875 7.7188 7.6875 1.5542 0 2.9772-0.45828 4.1875-1.25l32.094 50.375h270.75v-70.875h-315.91zm65.875 10.656h240.94v49.594h-240.94v-49.594z" fill="url(#d)"/>
  <path transform="matrix(.83607 0 0 .83607 560.05 -77.157)" d="m-173.49 579.67c0 4.2539-3.4485 7.7024-7.7024 7.7024s-7.7024-3.4485-7.7024-7.7024 3.4485-7.7024 7.7024-7.7024c4.1805 0 7.5979 3.3348 7.7001 7.514" fill="url(#a)"/>
  <path d="m472.67 412.05h226.77v33.661h-226.77z" fill="#4f7b00"/>
  <g transform="matrix(3.3489 0 0 1.8238 1205.8 -673.17)" font-family="Impact" font-size="10" letter-spacing="0" word-spacing="0">
   <path d="m-256.04004,613.65513h-2.05566v-1.37695c-1e-005-.40039-.022-.65022-.0659-.74951s-.14079-.14892-.29053-.14893c-.16927,1e-005-.27669.0602-.32226.18066s-.0684.38087-.0684.78125v3.67188c-1e-005,.38412.0228.63477.0684.75195s.14811.17578.30761.17578c.15299,0 .25309-.0586.3003-.17578s.0708-.39225.0708-.82519v-.99121h2.05566v.30761c0,.81706-.0578,1.39649-.17334,1.73828s-.3711.64128-.7666.89844-.88298.38574-1.4624.38574c-.60222,0-1.09864-.10905-1.48926-.32714s-.64942-.52002-.77637-.90577-.19043-.96598-.19043-1.74072v-2.30957c0-.56965.0195-.9969.0586-1.28174s.15543-.55907.34912-.82275 .46224-.47118.80566-.62256 .73812-.22704 1.18408-.22705c.60547,1e-005 1.10514.1172 1.49903.35156s.65266.52654.77636.87647 .18555.89437.18555,1.6333z"/>
   <path d="m-251.09863,616.76548v1.34766h-4.34082v-1.12793c1.2858-2.10286 2.04996-3.40413 2.29248-3.90381s.36376-.88948.36377-1.16943c-1e-005-.21484-.0366-.37516-.10987-.48096s-.18473-.15868-.33447-.15869-.26123.0586-.33447.17578-.10987.34994-.10986.69824v.75195h-1.76758v-.28808c0-.4427.0228-.79182.0684-1.04736s.15787-.507.33691-.7544 .41178-.43456.69824-.56152 .62988-.19042 1.03028-.19043c.7845,1e-005 1.37776.1945 1.77978.58349s.60302.88136.60303,1.47705c-1e-005,.45248-.11312.931-.33936,1.43555s-.89274,1.57553-1.99951,3.21289z"/>
   <path d="m-245.67871,612.88365v2.63672c-1e-005,.59896-.0326,1.03515-.0977,1.30859s-.2002.52897-.40527.7666-.45248.40853-.74219.5127-.61361.15625-.97168.15625c-.47201,0-.86426-.0545-1.17676-.16358s-.56152-.27913-.74707-.51025-.31738-.47445-.3955-.72998-.11719-.66162-.11719-1.21826v-2.75879c0-.72591.0627-1.26953.18799-1.63086s.37435-.65104.74707-.86914 .82438-.32714 1.35498-.32715c.43294,1e-005 .82031.0757 1.16211.22705s.59732.33611.7666.5542 .28401.46387.34424.7373 .0903.70964.0903,1.3086zm-1.97266-.66407c0-.41991-.0204-.68277-.061-.78857s-.13591-.15868-.28565-.15869-.24333.0562-.29052.16846-.0708.37191-.0708.7788v3.85743c-1e-005,.45898.022.73567.0659.83007s.13916.14161.28565.14161 .24251-.0553.28808-.16602 .0684-.3597.0684-.74707z"/>
   <path d="m-240.30762,612.88365v2.63672c0,.59896-.0326,1.03515-.0977,1.30859s-.2002.52897-.40528.7666-.45247.40853-.74218.5127-.61361.15625-.97168.15625c-.47201,0-.86426-.0545-1.17676-.16358s-.56153-.27913-.74707-.51025-.31739-.47445-.39551-.72998-.11719-.66162-.11719-1.21826v-2.75879c0-.72591.0627-1.26953.18799-1.63086s.37435-.65104.74707-.86914 .82438-.32714 1.35498-.32715c.43294,1e-005 .82031.0757 1.16211.22705s.59733.33611.7666.5542 .28401.46387.34424.7373 .0903.70964.0903,1.3086zm-1.97265-.66407c-1e-005-.41991-.0204-.68277-.061-.78857s-.13591-.15868-.28564-.15869-.24333.0562-.29053.16846-.0708.37191-.0708.7788v3.85743c0,.45898.022.73567.0659.83007s.13915.14161.28564.14161 .24251-.0553.28809-.16602 .0684-.3597.0684-.74707z"/>
   <path d="m-234.93652,612.88365v2.63672c-1e-005,.59896-.0326,1.03515-.0977,1.30859s-.2002.52897-.40527.7666-.45248.40853-.74219.5127-.61361.15625-.97168.15625c-.47201,0-.86426-.0545-1.17676-.16358s-.56152-.27913-.74707-.51025-.31738-.47445-.39551-.72998-.11718-.66162-.11718-1.21826v-2.75879c0-.72591.0627-1.26953.18798-1.63086s.37435-.65104.74707-.86914 .82438-.32714 1.35499-.32715c.43293,1e-005 .8203.0757 1.1621.22705s.59733.33611.76661.5542 .28401.46387.34423.7373 .0903.70964.0903,1.3086zm-1.97266-.66407c0-.41991-.0204-.68277-.061-.78857s-.13591-.15868-.28565-.15869-.24333.0562-.29053.16846-.0708.37191-.0708.7788v3.85743c0,.45898.022.73567.0659.83007s.13916.14161.28565.14161 .24251-.0553.28808-.16602 .0684-.3597.0684-.74707z"/>
  </g>
  <path d="m472.96 502.02c-7.3612 0-13.281 5.92-13.281 13.281s5.92 13.312 13.281 13.312h39.875v-26.594h-39.875zm53.938 0v26.594h53.156v-26.594h-53.156zm67.188 0v26.594h53.156v-26.594h-53.156zm67.219 0v26.594h39.844c7.3612 0 13.281-5.9513 13.281-13.312s-5.92-13.281-13.281-13.281h-39.844zm-188.34 41.25c-7.3612 0-13.281 5.92-13.281 13.281s5.92 13.312 13.281 13.312h39.875v-26.594h-39.875zm53.938 0v26.594h53.156v-26.594h-53.156zm67.188 0v26.594h53.156v-26.594h-53.156zm67.219 0v26.594h39.844c7.3612 0 13.281-5.9513 13.281-13.312s-5.92-13.281-13.281-13.281h-39.844zm-188.34 41.25c-7.3612 0-13.281 5.92-13.281 13.281s5.92 13.312 13.281 13.312h39.875v-26.594h-39.875zm53.938 0v26.594h53.156v-26.594h-53.156zm67.188 0v26.594h53.156v-26.594h-53.156zm67.219 0v26.594h39.844c7.3612 0 13.281-5.9513 13.281-13.312s-5.92-13.281-13.281-13.281h-39.844zm-183.91 50.062c-9.815 0-17.719 7.9038-17.719 17.719s7.9038 17.719 17.719 17.719h35.438v-35.438h-35.438zm49.5 0v35.438h53.156v-35.438h-53.156zm67.188 0v35.438h53.156v-35.438h-53.156zm67.219 0v35.438h35.438c9.815 0 17.719-7.9038 17.719-17.719s-7.9038-17.719-17.719-17.719h-35.438z" fill="#333"/>
  <g transform="translate(1365.6 -81.626)">
   <path d="m-894.38 586.3c-6.3797 0-11.531 5.1515-11.531 11.531s5.1515 11.5 11.531 11.5h38.469c1.1634 0 2.0938-0.93035 2.0938-2.0938v-18.844c0-1.1634-0.93035-2.0938-2.0938-2.0938h-38.469zm57.781 0c-1.1634 0-2.0938 0.93035-2.0938 2.0938v18.844c0 1.1634 0.93035 2.0938 2.0938 2.0938h47.906c1.1634 0 2.0938-0.93035 2.0938-2.0938v-18.844c0-1.1634-0.93035-2.0938-2.0938-2.0938h-47.906zm67.219 0c-1.1634 0-2.0938 0.93035-2.0938 2.0938v18.844c0 1.1634 0.93035 2.0938 2.0938 2.0938h47.875c1.1634 0 2.0938-0.93035 2.0938-2.0938v-18.844c0-1.1634-0.93035-2.0938-2.0938-2.0938h-47.875zm67.188 0c-1.1634 0-2.0938 0.93035-2.0938 2.0938v18.844c0 1.1634 0.93035 2.0938 2.0938 2.0938h38.469c6.3797 0 11.5-5.1203 11.5-11.5s-5.1203-11.531-11.5-11.531h-38.469zm-192.19 41.25c-6.3797 0-11.531 5.1515-11.531 11.531s5.1515 11.5 11.531 11.5h38.469c1.1634 0 2.0938-0.93035 2.0938-2.0938v-18.844c0-1.1634-0.93035-2.0938-2.0938-2.0938h-38.469zm57.781 0c-1.1634 0-2.0938 0.93035-2.0938 2.0938v18.844c0 1.1634 0.93035 2.0938 2.0938 2.0938h47.906c1.1634 0 2.0938-0.93035 2.0938-2.0938v-18.844c0-1.1634-0.93035-2.0938-2.0938-2.0938h-47.906zm67.219 0c-1.1634 0-2.0938 0.93035-2.0938 2.0938v18.844c0 1.1634 0.93035 2.0938 2.0938 2.0938h47.875c1.1634 0 2.0938-0.93035 2.0938-2.0938v-18.844c0-1.1634-0.93035-2.0938-2.0938-2.0938h-47.875zm67.188 0c-1.1634 0-2.0938 0.93035-2.0938 2.0938v18.844c0 1.1634 0.93035 2.0938 2.0938 2.0938h38.469c6.3797 0 11.5-5.1203 11.5-11.5s-5.1203-11.531-11.5-11.531h-38.469zm-192.19 41.25c-6.3797 0-11.531 5.1515-11.531 11.531s5.1515 11.5 11.531 11.5h38.469c1.1634 0 2.0938-0.93035 2.0938-2.0938v-18.844c0-1.1634-0.93035-2.0938-2.0938-2.0938h-38.469zm57.781 0c-1.1634 0-2.0938 0.93035-2.0938 2.0938v18.844c0 1.1634 0.93035 2.0938 2.0938 2.0938h47.906c1.1634 0 2.0938-0.93035 2.0938-2.0938v-18.844c0-1.1634-0.93035-2.0938-2.0938-2.0938h-47.906zm67.219 0c-1.1634 0-2.0938 0.93035-2.0938 2.0938v18.844c0 1.1634 0.93035 2.0938 2.0938 2.0938h47.875c1.1634 0 2.0938-0.93035 2.0938-2.0938v-18.844c0-1.1634-0.93035-2.0938-2.0938-2.0938h-47.875zm67.188 0c-1.1634 0-2.0938 0.93035-2.0938 2.0938v18.844c0 1.1634 0.93035 2.0938 2.0938 2.0938h38.469c6.3797 0 11.5-5.1203 11.5-11.5s-5.1203-11.531-11.5-11.531h-38.469zm-186.88 49.156c-9.3242 0-16.844 7.5195-16.844 16.844s7.5195 16.844 16.844 16.844h33.156c1.1634 0 2.0938-0.9616 2.0938-2.125v-29.438c0-1.1634-0.93035-2.125-2.0938-2.125h-33.156zm186.88 0c-1.1634 0-2.0938 0.9616-2.0938 2.125v29.438c0 1.1634 0.93035 2.125 2.0938 2.125h33.156c9.3242 0 16.812-7.5195 16.812-16.844s-7.4883-16.844-16.812-16.844h-33.156zm-134.41 0.0312c-1.1634 0-2.0938 0.93035-2.0938 2.0938v29.469c0 1.1634 0.93035 2.0938 2.0938 2.0938h47.906c1.1634 0 2.0938-0.93035 2.0938-2.0938v-29.469c0-1.1634-0.93035-2.0938-2.0938-2.0938h-47.906zm67.219 0c-1.1634 0-2.0938 0.93035-2.0938 2.0938v29.469c0 1.1634 0.93035 2.0938 2.0938 2.0938h47.875c1.1634 0 2.0938-0.93035 2.0938-2.0938v-29.469c0-1.1634-0.93035-2.0938-2.0938-2.0938h-47.875z" fill="#a1a69b"/>
   <path d="m-745.6 590.21c-0.87479 1e-5 -1.6701 0.16058-2.375 0.46875s-1.2622 0.74279-1.6562 1.2812-0.6798 1.2554-0.875 2.1562l2.8125 0.4375c0.0795-0.65022 0.31878-1.1301 0.6875-1.4688s0.79196-0.49999 1.3125-0.5c0.52776 1e-5 0.96314 0.13949 1.2812 0.4375s0.46874 0.68629 0.46875 1.1875c-1e-5 0.58928-0.22248 1.0819-0.65625 1.4375s-1.0508 0.52033-1.875 0.5l-0.34375 2.3125c0.54222-0.14223 1.0158-0.21874 1.4062-0.21875 0.59282 1e-5 1.0879 0.20506 1.5 0.625s0.62499 1.0008 0.625 1.7188c-1e-5 0.75861-0.2261 1.3655-0.65625 1.8125s-0.96478 0.65625-1.5938 0.65625c-0.58561 0-1.0567-0.15872-1.4688-0.53125s-0.68727-0.92058-0.78125-1.625l-2.9375 0.34375c0.15182 1.2531 0.70917 2.2557 1.6562 3.0312s2.1238 1.1562 3.5625 1.1562c1.5182 0 2.7931-0.45384 3.8125-1.375s1.5312-2.0365 1.5312-3.3438c-1e-5 -0.90084-0.26667-1.6758-0.8125-2.3125s-1.2766-1.0359-2.1875-1.2188c1.5254-0.77892 2.2812-1.8178 2.2812-3.125-1e-5 -0.92115-0.38036-1.7685-1.125-2.5-0.90371-0.89406-2.0972-1.3437-3.5938-1.3438zm-133.22 0.125c-0.34703 0.90763-1.0049 1.7256-1.9375 2.4062s-1.7985 1.1312-2.5938 1.375v2.5938c1.511-0.46735 2.8241-1.1809 3.9375-2.1562v10.75h3.0625v-14.969h-2.4688zm66.469 0c-1.4315 1e-5 -2.6394 0.34717-3.5938 1.0312s-1.5068 1.8349-1.6875 3.4062l3.0312 0.28125c0.0578-0.8331 0.28031-1.4535 0.65625-1.8125s0.89504-0.53124 1.5312-0.53125 1.1349 0.18921 1.5 0.53125 0.53124 0.83207 0.53125 1.4688c-1e-5 0.57574-0.20569 1.1607-0.625 1.75-0.31088 0.42672-1.1576 1.2386-2.5312 2.4375-1.7062 1.4834-2.8279 2.665-3.4062 3.5625s-0.91558 1.8413-1.0312 2.8438h10.656v-2.6562h-6.0312c0.15905-0.25738 0.36834-0.51032 0.625-0.78125s0.85095-0.82991 1.8125-1.6562 1.6313-1.466 2-1.9062c0.55667-0.66377 0.96209-1.3 1.2188-1.9062s0.37499-1.2357 0.375-1.9062c-1e-5 -1.1785-0.44729-2.145-1.3438-2.9375s-2.1187-1.2187-3.6875-1.2188zm134.09 0.5625-6.5625 13.875h13.125l-6.5625-13.875zm-66.688 40.562c-1.7207 1e-5 -3.1103 0.60687-4.1875 1.8125s-1.625 3.1766-1.625 5.9062c0 2.6619 0.52866 4.5816 1.5625 5.75s2.3325 1.75 3.9375 1.75c1.4965 0 2.7332-0.45384 3.6875-1.375s1.4375-2.1323 1.4375-3.6562c-1e-5 -1.4359-0.46769-2.6236-1.375-3.5312s-1.9776-1.375-3.25-1.375c-1.1278 1e-5 -2.0846 0.44138-2.8438 1.2812 0.11567-1.7136 0.39912-2.8331 0.84375-3.375s0.98156-0.81249 1.625-0.8125c0.48438 1e-5 0.88385 0.13533 1.1875 0.40625s0.4902 0.68106 0.5625 1.25l2.9375-0.3125c-0.2169-1.2056-0.70837-2.1167-1.5-2.75s-1.7927-0.96874-3-0.96875zm66.688 0c-1.5399 1e-5 -2.7334 0.51528-3.5938 1.5312-1.0411 1.2328-1.5625 3.2584-1.5625 6.0625 0 2.8583 0.49042 4.8546 1.4375 5.9688s2.1716 1.6562 3.7188 1.6562c1.5399 0 2.7647-0.51526 3.625-1.5312 1.0411-1.2327 1.5625-3.2448 1.5625-6.0625s-0.52867-4.8433-1.5625-6.0625c-0.86756-1.0295-2.0851-1.5625-3.625-1.5625zm-200.41 0.125-6.9062 9.4688v2.5h6.5v3h2.9688v-3h1.9688v-2.5h-1.9688v-9.4688h-2.5625zm62.594 0.0312-1.5625 7.75 2.4688 0.3125c0.69404-0.72473 1.5002-1.0625 2.375-1.0625 0.70127 1e-5 1.2501 0.23031 1.6875 0.6875s0.65624 1.1169 0.65625 2.0312c-1e-5 0.97535-0.21525 1.7345-0.65625 2.2188s-0.9888 0.71875-1.625 0.71875c-0.55669 0-1.0422-0.18658-1.4688-0.5625s-0.6945-0.88779-0.78125-1.5312l-3.0312 0.28125c0.18074 1.2463 0.73086 2.2305 1.6562 2.9688s2.1261 1.125 3.5938 1.125c1.8363 0 3.2786-0.65474 4.3125-1.9688 0.7591-0.9618 1.125-2.0553 1.125-3.2812-1e-5 -1.4698-0.46641-2.6726-1.4062-3.5938s-2.0856-1.375-3.4375-1.375c-0.70851 1e-5 -1.3829 0.15042-2.0625 0.46875l0.46875-2.5312h5.75v-2.6562h-8.0625zm137.81 2.2188c0.3687 1e-5 0.71442 0.12363 1 0.34375s0.53077 0.65889 0.71875 1.3125 0.28124 1.8463 0.28125 3.5938-0.1341 2.9872-0.34375 3.7188c-0.15906 0.56896-0.36707 0.96737-0.65625 1.1875s-0.6313 0.3125-1 0.3125-0.68319-0.0958-0.96875-0.3125-0.53078-0.65888-0.71875-1.3125-0.28125-1.8462-0.28125-3.5938 0.10284-2.9804 0.3125-3.7188c0.15905-0.56894 0.39831-0.96736 0.6875-1.1875s0.60003-0.34374 0.96875-0.34375zm-200.81 2.125v5.0938h-3.6562l3.6562-5.0938zm133.81 2.9062c0.60728 1e-5 1.1264 0.20584 1.5312 0.65625s0.59374 1.1877 0.59375 2.1562c-1e-5 0.94149-0.18657 1.6181-0.5625 2.0312s-0.84235 0.59375-1.4062 0.59375c-0.58561 0-1.107-0.24539-1.5625-0.75s-0.6875-1.2283-0.6875-2.1562c0-0.83988 0.22014-1.4761 0.625-1.9062s0.88314-0.62499 1.4688-0.625zm-67.438 33.844c-1.5255 1e-5 -2.7035 0.36903-3.5312 1.0938s-1.25 1.6392-1.25 2.75c0 0.65024 0.17338 1.2673 0.53125 1.8125s0.93072 0.96969 1.7188 1.2812c-0.91816 0.36576-1.5734 0.88857-2 1.5625s-0.65625 1.4127-0.65625 2.2188c0 1.463 0.5837 2.5976 1.7188 3.4375 0.96154 0.71119 2.1478 1.0625 3.5938 1.0625 1.5544 0 2.8138-0.42105 3.75-1.2812s1.4062-1.9688 1.4062-3.3438c-1e-5 -0.83311-0.22843-1.5821-0.6875-2.2188s-1.1492-1.1056-2.0312-1.4375c0.69403-0.28447 1.2418-0.71152 1.625-1.25s0.56249-1.1529 0.5625-1.8438c-1e-5 -1.1108-0.41499-2.0252-1.25-2.75s-1.989-1.0937-3.5-1.0938zm67.031 0c-1.4821 1e-5 -2.6983 0.48171-3.6562 1.4062s-1.4375 2.1458-1.4375 3.6562c0 1.4495 0.46768 2.627 1.375 3.5312s1.968 1.3438 3.2188 1.3438c1.1495 1e-5 2.1086-0.41688 2.875-1.25-0.12291 1.7069-0.40275 2.8331-0.84375 3.375s-0.96478 0.8125-1.5938 0.8125c-0.49885 0-0.91511-0.13532-1.2188-0.40625s-0.49021-0.68782-0.5625-1.25l-2.9375 0.3125c0.21689 1.2327 0.70241 2.1615 1.4688 2.7812s1.7565 0.90625 3 0.90625c1.7279 0 3.1415-0.60686 4.2188-1.8125s1.625-3.1521 1.625-5.875c-1e-5 -2.6754-0.52867-4.6128-1.5625-5.7812s-2.3566-1.75-3.9688-1.75zm-139.41 0.28125v2.6562h6.9375c-1.4315 1.6866-2.5808 3.5784-3.4375 5.7188s-1.2932 4.2534-1.3438 6.3125h2.9375c-7e-3 -1.314 0.22118-2.7991 0.6875-4.4688s1.142-3.2666 2.0312-4.75 1.7647-2.6138 2.625-3.4062v-2.0625h-10.438zm200.25 0.40625 6.5625 13.875 6.5625-13.875h-13.125zm-127.84 1.5938c0.5639 1e-5 1.0003 0.14703 1.3438 0.46875s0.53124 0.74617 0.53125 1.2812c-1e-5 0.56896-0.18424 1.022-0.53125 1.3438s-0.79664 0.50001-1.375 0.5c-0.57115 1e-5 -1.0316-0.18165-1.375-0.5s-0.53125-0.74354-0.53125-1.3125c0-0.53508 0.18422-0.98737 0.53125-1.3125s0.82064-0.46874 1.4062-0.46875zm66.875 0.0937c0.59282 1e-5 1.1106 0.24202 1.5625 0.75s0.65624 1.2351 0.65625 2.1562c-1e-5 0.83989-0.19251 1.4728-0.59375 1.9062s-0.88316 0.65626-1.4688 0.65625c-0.60729 1e-5 -1.1264-0.23707-1.5312-0.6875s-0.59375-1.1319-0.59375-2.0938c0-0.94825 0.19017-1.6459 0.5625-2.0625s0.84233-0.62499 1.4062-0.625zm-66.875 5.7812c0.64343 1e-5 1.1744 0.20168 1.5938 0.625s0.62499 0.98986 0.625 1.6875c-1e-5 0.79925-0.21292 1.4204-0.625 1.8438s-0.93353 0.625-1.5625 0.625c-0.64344 0-1.1636-0.21599-1.5938-0.65625s-0.65625-1.058-0.65625-1.8438c0-0.56218 0.1974-1.0816 0.5625-1.5625s0.91159-0.71874 1.6562-0.71875zm-71.5 47.75c-1.2711 1e-5 -2.3169 0.58125-3.125 1.7188s-1.1875 2.6129-1.1875 4.4688c0 1.8505 0.37954 3.3598 1.1875 4.5s1.8536 1.7188 3.125 1.7188 2.3203-0.58023 3.125-1.7188 1.1875-2.6462 1.1875-4.5-0.38222-3.3294-1.1875-4.4688-1.86-1.7187-3.125-1.7188zm75.25 0c-1.2711 1e-5 -2.2857 0.58125-3.0938 1.7188s-1.2188 2.6129-1.2188 4.4688c0 1.8505 0.41079 3.3598 1.2188 4.5s1.8224 1.7188 3.0938 1.7188 2.3203-0.58023 3.125-1.7188 1.2187-2.6462 1.2188-4.5-0.41347-3.3294-1.2188-4.4688-1.86-1.7187-3.125-1.7188zm9.7188 0c-1.294 1e-5 -2.3283 0.55694-3.125 1.6875s-1.1875 2.6303-1.1875 4.5 0.41333 3.3688 1.2188 4.5 1.856 1.7188 3.1562 1.7188c1.3178 0 2.2362-0.48757 2.75-1.4375l0.25 1.2188h1.0312v-6.2812h-3.6875v1.7188h2.3125v1.5625c-0.57112 1.0332-1.4732 1.5625-2.6875 1.5625-0.85883 0-1.5608-0.39826-2.0938-1.1875s-0.78125-1.92-0.78125-3.375 0.25365-2.5878 0.78125-3.375 1.2321-1.1562 2.0938-1.1562c0.7246 1e-5 1.2844 0.19187 1.7188 0.59375s0.69925 1.0084 0.75 1.8125h1.4375c-0.088-1.298-0.4925-2.2963-1.2188-3s-1.6346-1.0625-2.7188-1.0625zm37.625 0c-1.2808 1e-5 -2.301 0.5681-3.0625 1.6875s-1.1562 2.6079-1.1562 4.5 0.39472 3.4118 1.1562 4.5312 1.7817 1.6875 3.0625 1.6875c1.0245 0 1.8566-0.35614 2.5312-1.0625s1.0685-1.7832 1.1562-3.1875h-1.4688c-0.0591 0.8843-0.29197 1.5511-0.6875 1.9688s-0.91147 0.625-1.5625 0.625c-0.83549 0-1.4778-0.40621-1.9688-1.1875s-0.75-1.9041-0.75-3.375c0-1.4766 0.25551-2.5966 0.75-3.375s1.1559-1.1562 2-1.1562c0.62261 1e-5 1.1254 0.18476 1.5312 0.59375s0.6365 1.0226 0.6875 1.8125h1.4688c-0.088-1.2798-0.49131-2.2872-1.1875-3s-1.5189-1.0625-2.5-1.0625zm-116.78 0.1875v12h1.3438v-9.2188l4.375 9.2188h1.4062v-12h-1.375v9.2188l-4.375-9.2188h-1.375zm48.125 0v12h1.4375v-4.6562h2.0625c1.0966 0 1.9424-0.32836 2.5312-0.96875s0.87499-1.5549 0.875-2.7812c-1e-5 -0.75777-0.13952-1.4696-0.4375-2.0938s-0.71107-1.032-1.2188-1.2188-1.1171-0.28124-1.8438-0.28125h-3.4062zm8.375 0v12h1.4062v-5h2.0312c0.41304 0 0.77432 0.17304 1.0938 0.5s0.54668 0.75386 0.6875 1.2812l0.84375 3.2188h1.5l-0.90625-3.375c-0.29106-1.0477-0.66463-1.7408-1.1562-2.0625 0.46806-0.18219 0.868-0.50623 1.1875-1 0.37004-0.57188 0.56249-1.282 0.5625-2.125-1e-5 -0.73172-0.15144-1.3742-0.4375-1.9688s-0.641-1.0031-1.0938-1.1875-1.0294-0.28124-1.7188-0.28125h-4zm65.5 0v12h5.6875v-1.7188h-4.25v-10.281h-1.4375zm6.9688 0v12h6.7812v-1.7188h-5.3438v-3.5938h4.8125v-1.7188h-4.8125v-3.25h5.1562v-1.7188h-6.5938zm10.781 0-3.4062 12h1.4375l0.96875-3.5312h3.4688l1.0312 3.5312h1.5312l-3.625-12h-1.4062zm5.9375 0v12h1.4062v-5h2.0312c0.41304 0 0.77432 0.17304 1.0938 0.5s0.54668 0.75386 0.6875 1.2812l0.84375 3.2188h1.5l-0.90625-3.375c-0.29106-1.0477-0.66463-1.7408-1.1562-2.0625 0.46806-0.18219 0.868-0.50623 1.1875-1 0.37004-0.57188 0.56249-1.282 0.5625-2.125-1e-5 -0.73172-0.15144-1.3742-0.4375-1.9688s-0.641-1.0031-1.0938-1.1875-1.0294-0.28124-1.7188-0.28125h-4zm33.938 0v12h6.8125v-1.7188h-5.375v-3.5938h4.8125v-1.7188h-4.8125v-3.25h5.1562v-1.7188h-6.5938zm8.3438 0v12h1.375v-9.2188l4.375 9.2188h1.4062v-12h-1.375v9.2188l-4.375-9.2188h-1.4062zm8.3438 0v1.7188h2.875v10.281h1.4375v-10.281h2.875v-1.7188h-7.1875zm8.3438 0v12h6.8125v-1.7188h-5.375v-3.5938h4.8438v-1.7188h-4.8438v-3.25h5.1562v-1.7188h-6.5938zm8.375 0v12h1.4062v-5h2.0312c0.41304 0 0.77432 0.17304 1.0938 0.5s0.54668 0.75386 0.6875 1.2812l0.84375 3.2188h1.5l-0.90625-3.375c-0.29106-1.0477-0.66463-1.7408-1.1562-2.0625 0.46806-0.18219 0.868-0.50623 1.1875-1 0.37004-0.57188 0.56249-1.282 0.5625-2.125-1e-5 -0.73172-0.15144-1.3742-0.4375-1.9688s-0.641-1.0031-1.0938-1.1875-1.0294-0.28124-1.7188-0.28125h-4zm-218.81 1.4688c0.82051 1e-5 1.4972 0.39388 2.0312 1.1875s0.78124 1.8976 0.78125 3.3438-0.24579 2.5824-0.78125 3.375-1.2288 1.1875-2.0625 1.1875-1.5256-0.39302-2.0625-1.1875-0.78125-1.9305-0.78125-3.375c0-1.4479 0.2731-2.551 0.8125-3.3438s1.2245-1.1875 2.0625-1.1875zm75.25 0c0.82051 1e-5 1.4972 0.39388 2.0312 1.1875s0.81249 1.8976 0.8125 3.3438-0.27704 2.5824-0.8125 3.375-1.2288 1.1875-2.0625 1.1875-1.4944-0.39302-2.0312-1.1875-0.8125-1.9305-0.8125-3.375c0-1.4479 0.2731-2.551 0.8125-3.3438s1.2245-1.1875 2.0625-1.1875zm-11.562 0.15625h2.6562c1.1605 1e-5 1.7187 0.59398 1.7188 1.8125-1e-5 0.69013-0.14294 1.1941-0.4375 1.4688s-0.77814 0.40626-1.4688 0.40625h-2.4688v-3.6875zm89.188 0h2.6562c1.1605 1e-5 1.7187 0.59398 1.7188 1.8125-1e-5 0.69013-0.14294 1.1941-0.4375 1.4688s-0.77814 0.40626-1.4688 0.40625h-2.4688v-3.6875zm67.344 0h2.625c1.1605 1e-5 1.75 0.59398 1.75 1.8125-1e-5 0.69013-0.14294 1.1941-0.4375 1.4688s-0.77814 0.40626-1.4688 0.40625h-2.4688v-3.6875zm-164.88 0.0937h2.0625c0.49144 1e-5 0.84764 0.0377 1.0938 0.125s0.4649 0.29484 0.625 0.625 0.21874 0.71986 0.21875 1.1562c-1e-5 0.65393-0.11613 1.1594-0.40625 1.5s-0.79239 0.50001-1.5 0.5h-2.0938v-3.9062zm90.875 0.0937 1.4062 5.0938h-2.7188l1.3125-5.0938z"/>
  </g>
  <path d="m269.32 524.56c-4.32 2.4942-5.8066 7.9924-3.3125 12.312l107.97 187 0.25-0.125-107.97-187c-2.4133-4.18-0.9925-9.5242 3.1875-11.938l-0.125-0.25zm0 57.5c-4.32 2.4942-5.8066 7.9924-3.3125 12.312l74.781 129.5 0.25-0.125-74.781-129.5c-2.4133-4.18-0.9925-9.5242 3.1875-11.938l-0.125-0.25zm0 57.5c-4.32 2.4942-5.8066 7.9924-3.3125 12.312l41.594 72 0.25-0.125-41.594-72c-2.4133-4.18-0.9925-9.5242 3.1875-11.938l-0.125-0.25z" fill="#fff"/>
  <path d="m273.59 523.49c-1.4273 0.0385-2.8594 0.42071-4.1875 1.1875-1.4415 0.83225-2.5577 1.9902-3.3125 3.3438 0.6895-0.89749 1.5516-1.6796 2.5938-2.2812 1.3284-0.76679 2.7597-1.149 4.1874-1.1875 3.1398-0.0848 6.2191 1.5156 7.9063 4.4375l112.47 194.81h-19.125l1.5312 2.6562h20.469l-1.5312-2.6562-113.09-195.88c-1.6875-2.9219-4.7661-4.5223-7.9062-4.4375zm0 57.5c-1.4273 0.0385-2.8594 0.42071-4.1875 1.1875-1.4415 0.83225-2.5577 1.9902-3.3125 3.3438 0.6895-0.89749 1.5516-1.6796 2.5938-2.2812 1.3284-0.76679 2.7597-1.149 4.1874-1.1875 3.1398-0.0848 6.2191 1.5156 7.9063 4.4375l79.281 137.31h-19.125l1.5312 2.6562h20.469l-1.5313-2.6562-79.906-138.38c-1.6875-2.9219-4.7661-4.5223-7.9062-4.4375zm0 57.5c-1.4273 0.0385-2.8594 0.42071-4.1875 1.1875-1.4415 0.83225-2.5577 1.9902-3.3125 3.3438 0.6895-0.89749 1.5516-1.6796 2.5938-2.2812 1.3281-0.76679 2.76-1.149 4.1874-1.1875 3.1401-0.0848 6.2191 1.5156 7.9063 4.4375l46.062 79.812h-19.094l1.5313 2.6562h20.438l-1.5312-2.6562-46.688-80.875c-1.6874-2.9219-4.7661-4.5223-7.9062-4.4375z" fill="#999"/>
 </g>
</svg>
