<?xml version="1.0" encoding="iso-8859-1"?>
<!-- Generator: Adobe Illustrator 19.0.0, SVG Export Plug-In . SVG Version: 6.00 Build 0)  -->
<svg version="1.1" id="Capa_1" xmlns="http://www.w3.org/2000/svg" xmlns:xlink="http://www.w3.org/1999/xlink" x="0px" y="0px"
	 viewBox="0 0 512 512" style="enable-background:new 0 0 512 512;" xml:space="preserve">
<g>
	<path style="fill:#ACABB1;" d="M315.403,47.527l-23.068-13.318l0,0l-36.182-20.89h-0.001v-0.001L233.085,0L214.33,2.186
		l-36.365,21.133l-0.05,17.876v401.663l15.71,9.658l-0.006,2.121l82.604,47.527l2.074-1.214v0.243L297.67,512l36.365-21.133V89.203
		l0.05-17.876L315.403,47.527z M232.625,162.233l46.073,26.601l-0.227,80.051l-45.727-26.601L232.625,162.233z M232.146,331.473
		l0.077-27.471l46.073,26.601v24.424l-43.483-25.104L232.146,331.473z M232.997,100.514l-0.119-27.586l46.073,26.601l-0.078,27.586
		L232.997,100.514z"/>
	<polygon style="fill:#ACABB1;" points="195.978,283.077 232.342,261.943 231.86,432.532 195.494,453.665 	"/>
</g>
<g style="enable-background:new    ;">
	<polygon style="fill:#898890;" points="276.222,401.223 317.132,377.448 316.846,478.389 276.222,502.163 	"/>
	<polygon style="fill:#D8D8DA;" points="193.904,353.697 234.814,329.922 317.132,377.448 276.222,401.223 	"/>
</g>
<polygon style="fill:#D8D8DA;" points="196.034,263.416 232.745,242.283 314.717,289.81 278.353,310.943 "/>
<g>
	<polygon style="fill:#ACABB1;" points="196.381,141.306 232.745,120.173 232.745,242.283 196.034,263.416 	"/>
	<polygon style="fill:#ACABB1;" points="196.633,52.002 232.997,30.869 232.997,100.514 196.633,121.646 	"/>
</g>
<g>
	<polygon style="fill:#D8D8DA;" points="196.633,121.646 232.997,100.514 315.119,148.04 278.754,169.173 	"/>
	<polygon style="fill:#D8D8DA;" points="177.964,23.319 214.33,2.186 233.085,0 196.721,21.133 	"/>
	<polygon style="fill:#D8D8DA;" points="219.788,34.451 256.153,13.318 256.11,28.327 219.746,49.46 	"/>
</g>
<polygon style="fill:#E0E0E2;" points="196.721,21.133 233.085,0 256.153,13.318 219.788,34.451 "/>
<polygon style="fill:#D8D8DA;" points="219.746,49.46 256.11,28.327 292.294,49.217 255.929,70.35 "/>
<polygon style="fill:#FF3E61;" points="219.789,34.451 256.153,13.318 292.336,34.208 255.971,55.341 "/>
<g>
	<polygon style="fill:#C60024;" points="255.971,55.341 292.336,34.208 292.294,49.217 255.929,70.35 	"/>
	<polygon style="fill:#C60024;" points="255.971,55.341 255.929,70.35 219.746,49.46 219.789,34.451 	"/>
</g>
<polygon style="fill:#ACABB1;" points="297.67,110.335 334.036,89.203 334.036,490.867 297.67,512 "/>
<polygon style="fill:#E0E0E2;" points="255.971,55.341 292.336,34.208 315.403,47.527 279.039,68.659 "/>
<polygon style="fill:#ACABB1;" points="297.722,92.461 334.086,71.327 334.036,89.203 297.67,110.335 "/>
<polygon style="fill:#D8D8DA;" points="279.039,68.659 315.403,47.527 334.086,71.327 297.722,92.461 "/>
<path style="fill:#C6C5CB;" d="M279.039,68.659l18.683,23.8l-0.05,17.876v401.664l-19.374-10.807V330.603l-82.319-47.527
	l-0.484,170.59l-17.58-10.807V41.195l0.05-17.876l18.756-2.186l23.068,13.318l-0.043,15.009l36.183,20.89l0.043-15.009
	L279.039,68.659z M278.353,310.943l0.346-122.11l-82.318-47.527l-0.346,122.11L278.353,310.943 M278.754,169.173l0.197-69.645
	l-82.318-47.527v69.645L278.754,169.173"/>
<polygon style="fill:#D8D8DA;" points="195.781,352.606 193.904,353.697 195.775,354.776 "/>
<polygon style="fill:#ACABB1;" points="276.222,401.223 276.222,502.163 193.618,454.637 193.904,353.697 "/>
<g>
</g>
<g>
</g>
<g>
</g>
<g>
</g>
<g>
</g>
<g>
</g>
<g>
</g>
<g>
</g>
<g>
</g>
<g>
</g>
<g>
</g>
<g>
</g>
<g>
</g>
<g>
</g>
<g>
</g>
</svg>
