<?xml version="1.0" encoding="UTF-8"?>
<svg viewBox="0 0 744.09448819 1052.3622047" xmlns="http://www.w3.org/2000/svg">
 <path d="m362.4 183.38-144.51 283.15-57.217 137.91" fill="#fff" stroke="#000" stroke-width="1.4524"/>
 <path d="m70.441 565.56c-1.1434 2.4981-1.5218 4.8322 0.73355 6.602l111.5 50.615c2.9998 1.9929-0.72676 11.659 2.7508 15.771l261.33 127.27c7.4419 1.9749 10.511-0.27187 12.47-2.9342l214.93-493.68c2.4818-1.3274-2.8008-16.356-12.104-18.889-2.4462-6.3275 0.6762-14.92-9.903-17.972l-246.48-51.899c-7.5598-0.6759-11.597 2.0269-13.296 6.2352-2.709 5.0593-5.3414 11.462-7.794 14.579-4.9106 0.15793-11.043-6.5497-15.083 1.2262l-43.654 86.361c-1.7544 1.883-6.1245 0.77653-9.4026 0.91815l-33.274-113.72-212.73 389.52z" fill="#fff" stroke="#000" stroke-width="1.4524"/>
 <path d="m73.834 566.84 74.364 33.927 13.938 5.1349c3.5003 0.55926 6.9915 1.096 9.5362-0.73355l2.9342-1.4671c15.923-50.25 37.167-93.406 55.75-140.11 29.342-58.195 54.003-109.37 88.027-174.59 3.4233-2.2159 6.113-2.5373 9.5363-3.7595l36.311-72.622c0.71552-4.0263 1.1878-19.47-1.8339-29.251-3.9563-3.6924-8.0283-6.806-12.47-8.0691l-76.626-13.562c-5.2586-0.63136-6.4344-0.31949-8.6391 3.3948l-141.4 268.38-53.321 125.84c-0.99065 4.0219 1.2776 5.8712 3.8978 7.4859z" fill="#fff" stroke="#000" stroke-width="1.4524"/>
 <path d="m550 448.37c4.726 1.8017 9.8721 2.751 12.746-3.2093l89.402-202.92c1.9135-3.6608 2.7776-6.9018-1.3596-8.1423l-246.22-51.734c-3.8826 0.21322-7.0935 0.27247-8.8027 2.6592l-93.528 178.8c-0.967 2.0632-1.4055 5.0889 0.27509 6.1894l247.48 78.353z" fill="#fff" stroke="#000" stroke-width="1.4524"/>
 <path d="m151.87 590.5 56.484-133.51 132.04-262.61" fill="#fff" stroke="#000" stroke-width="1.4524"/>
 <path d="m343.32 347.69c-1.881 3.5469-2.694 6.7149 2.9342 8.8027l187.79 56.484c7.111 1.6935 10.727-1.2196 12.47-6.602l63.086-143.78c5.5406-11.056-1.5657-11.573-7.3356-13.204l-178.25-38.145c-7.2253-2.0151-11.6-0.18137-13.938 4.4013l-66.754 132.04z" fill="#fff" stroke="#000" stroke-width="1.4524"/>
 <path d="m428.42 221.52c-2.598-0.30825-5.1961-1.8822-7.7941 1.4671l-63.361 121.77c-3.5904 6.7916-1.3007 7.1944 0 8.0691l176.79 52.816c4.6229 0.97039 7.3558-0.23992 8.8026-2.9342l59.051-136.44c2.3756-5.0549 1.6117-6.1331 0.36678-6.602l-173.85-38.145z" fill="#fff" stroke="#000" stroke-width="1.4524"/>
 <path d="m554.59 457.73-121.77 290.49" fill="#fff" stroke="#000" stroke-width="1.4524"/>
 <path d="m661.76 251.61-220.42 496.49" fill="#fff" stroke="#000" stroke-width="1.4524"/>
 <path d="m270.72063,160.70339c-.75604-.0377-1.38533.002-1.997.0906-1.02755.14877-1.89467.60099-2.63243,1.27082s-1.38486,1.53898-2.08776,2.7232l-141.42434,268.32496v.0906l-53.37437,125.99277c-.5567,2.26013.0552,3.93404.9985,5.26483l-.36309.72618v.0906c-.59481,1.29959-1.04803,2.59592-.9985,3.90325s.6395,2.5461 1.90625,3.54015l31.40716,14.2512c-8.62787,7.37078-17.63264,13.02447-21.5132,27.86732-.02131.0731-.07183.10785-.09058.18159-1.68165,3.26057-2.37927,6.09924-2.26934,8.53267 .11232,2.48824 1.01757,4.57658 2.54165,6.26332 .09655.10657.26258.16838.36309.27217-.98021-.53766-1.94998-.71972-2.99552-1.36159h-.09058v-.0906c-.54029-.17839-.74764-.23732-1.08927-.27219-.2623-.0262-.51669.0987-.63541.18159s-.25388.19288-.36309.27217l-.18159.0906-.09058.27217c-.48592,2.02611-1.42242,4.06995-1.81545,6.26335-.12149.67769-.21271,1.33298-.18159,2.08777 .0013.0326-.0019.0584 0,.0906-.05051.52362-.05435,1.11559.18159,1.81547 .15686.46537.59762,1.07912.9985,1.6339-.15857-.0477-.30693-.0482-.45386,0s-.30147.13619-.36309.18159c-.12319.0906-.17306.20013-.27217.27217l-.18159.0906-.09058.27217c-.48594,2.02611-1.42244,4.06997-1.81547,6.26333-.12149.67773-.21271,1.33303-.18159,2.08779 .0013.0326-.0019.0584 0,.0906-.05051.5236-.05435,1.11559.18159,1.81545 .16709.49587.64202,1.1242 1.08927,1.7247-.05456-.0262-.08461-.0618-.18159-.0906-.04966-.0149-.11509-.002-.27217,0s-.27944.0409-.36309.0906c-.16731.0993-.25096.1899-.36309.27217l-.18159.0906-.09058.27217c-.48929,2.04002-1.46547,4.51364-1.81547,6.71721-.09932.62692-.21057,1.34419-.18159,2.08777-.0021.0494.0021.13043 0,.18158-.03517.5164-.05712,1.12738.18159,1.81546 .15686.45243.62234,1.01895.99852,1.54313-.12894-.036-.35896.006-.54466.0906s-.2341.13981-.27217.18159c-.07694.0838-.11062.12788-.18159.18158l-.18159.0906-.09058.27216c-.44319,2.02353-1.52792,4.64869-1.81547,6.89876-.09378.73375-.07055,1.47278 0,2.17854-.0013.0232.0013.0657 0,.0906-.02622.5063-.05946,1.10168.18159,1.81547 .15559.4606.68778,1.01195 1.08927,1.54314-.03666-.009-.13747.00074-.27217,0-.13513-.00075-.2655.039-.36311.0906-.1948.10379-.24399.17626-.36309.27217l-.18159.18159-.09058.27216c-.3828,2.0434-1.25986,4.13765-1.54313,6.3541-.08632.67439-.15985,1.41758-.09058,2.17857-.0012.0232.0011.0671 0,.0906-.04007.88204.24806,2.28785 1.36159,3.81247-.26665-.0584-.57978.0842-.72618.18158s-.24634.17221-.36309.27217l-.18159.18159-.09058.27217c-.32626,2.07123-1.05376,4.14936-1.27082,6.35412-.065.66032-.21164,1.74529-.09058,2.6324 0,.0232-.00013.0657 0,.0906 .0021.52085.06373,1.13889.36309,1.81545 .19352.43744.74579.95545 1.18004,1.45237-.10827-.0213-.37824.0303-.54463.0906s-.21901.13022-.27217.18158c-.10657.10252-.09442.10337-.18159.18159l-.27449.18564v.27217c-.27654,2.06607-1.07111,4.65158-1.18006,6.89873-.03346.69323-.039,1.41993.09058,2.17857 .00068.0232-.00077.0656 0,.0906 .01705.51925.04966,1.13441.36311,1.81545 .19885.43199.74613.97062 1.18004,1.45238-.10081-.017-.20333-.0543-.36309,0s-.30446.21844-.36309.27217c-.11744.10827-.18095.0946-.27219.18159l-.18159.18158v.27217c-.22221,2.07682-.95728,4.91894-.9985,7.17108-.01066.67633.05094,1.32691.18159,1.99699 .0021.0477-.0021.13214 0,.18159 .03197.4996.13939,1.0885.45386,1.7247 .21379.43246.70376.97134 1.18006,1.45236-.308.0149-.51789.16944-.63543.27217s-.25851.16709-.36309.27219l-.18159.18244v.27217c-.16326,2.13297-.58016,4.96947-.54463,7.17105 .01066.66096.0064,1.3465.18159,2.08779 .002.0213-.0021.0686 0,.0906 .0827.8833.54555,2.38515 1.99702,3.81247-.07992-.00021-.16028-.0171-.27219,0-.22626.0354-.53897.25533-.63541.36309s-.0942.17029-.18159.27217l-.18159.18159v.27219c-.0064,2.07896-.48715,4.21503-.36309,6.44487 .03708.66659.06394,1.428.27217,2.17856 .0021.0213-.0021.0688 0,.0906 .13236.9504.77793,2.52535 2.36011,3.90324-.11978-.009-.24459-.0673-.45386,0-.25126.0808-.4853.3635-.54463.45387s-.01705.0874-.09058.18158l-.18159.18159v.27217c.08888,2.07238-.31684,4.30913-.09058,6.53567 .07779.76571.38762,2.20844.72618,3.08626 .02131.0149-.0021.0738 0,.0906 .1217.50542.2838,1.05468.7262,1.63391 .31123.40746.94775.85711 1.54313,1.27082-.07587.002-.16752-.0171-.27217,0-.20951.0375-.44007.23644-.54464.36309s-.19033.15515-.27219.27219l-.09058.27216v.27217c.20013,2.09246.10188,5.14546.54463,7.35262 .12916.64491.32249,1.28218.63541,1.997 .02131.0149-.0021.0761 0,.0906 .26695.9138 1.07307,2.25836 2.81397,3.3586-.0731-.002-.16432-.006-.27217,0-.17988.0107-.4996.20909-.63541.36309s-.19267.22746-.27219.36309l-.09058.18159v.27219c.36245,2.08001.50316,4.928 1.08927,7.08028 .19352.71054.64091,1.93877 1.08929,2.7232 .0085.0213-.0085.0706 0,.0906 .19544.48594.46196.99999.9985,1.54313 .55915.56608 1.34164,1.06076 2.6324,1.54316-.38975.0688-.46987.0855-.81695.18159-.19203.0531-.45397.30041-.54463.45386s-.12149.22831-.18159.36309l-.18159.18159 .09058.27217c.59479,2.01639 1.14358,4.99871 1.99702,7.0803 .24022.58555.46514,1.34166.90773,1.99699 .02323.036.06501.0552.09058.0906 .43809.855 1.46924,2.12735 3.44938,2.90475-.05776.0149-.1006.0605-.18159.0906-.1916.0722-.47903.30126-.54463.45386s-.13598.2289-.18159.36311l-.09058.27217 .18159.27217c.7891,1.98417 1.68195,4.93546 2.72318,6.89876 .1786.33685.47705.82603.81695,1.36158 .31558.4972.58929,1.01596.90775,1.36159 .02323.0262.06586.0657.09058.0906 .54329.76016 1.88078,2.04704 3.99401,2.54166-.07587.0303-.16177.029-.27219.0906-.17306.0985-.40593.37402-.45386.54463s-.06714.30896-.09058.45386v.27219l.09058.18159c1.0998,1.82487 2.61659,4.76909 3.99401,6.53565 .2315.29672.63432.76267 1.08927,1.27083 .42364.47316.78049.97048 1.18006,1.27082l.09058.0906c.37157.35501.85779.7408 1.54313.9985 .7323.27536 1.71568.36281 3.08629.27217h.09058c.8644-.25591 1.61236-.68729 2.45088-.9985-.7239.35563-1.20931.82614-1.99702,1.18006h-.09058l-.09058.0906c-.41337.31687-.51548.27857-.81695.54464-.15068.13299-.2597.461-.27219.63541s-.0064.21699 0,.36309v.27217l.18159.18158c1.41596,1.55872 3.52803,4.42386 5.26486,5.90026 .53018.45065 1.08477.84049 1.72467,1.18005 .0213.0149.0686.075.0906.0906 .79901.57534 2.63678,1.51677 4.90174,1.27081-.0526.0503-.11125.0938-.18158.18159-.13236.16496-.29061.47677-.27217.63541s.0665.22541.0906.36309l.0906.27217 .18159.18158c1.70161,1.40407 5.49106,4.46478 7.53414,5.53715 .63368.33255 1.31783.54517 1.99702.72618 .017.002.0776-.0213.0906,0 .87187.37675 2.87147,1.05033 5.08328.27219-.0688.0995-.20588.19182-.27217.36309-.0778.20098-.052.48268 0,.63541s.12639.23208.18159.36309l.0906.27217 .18159.0906c1.90795.96284 4.95696,2.79779 7.0803,3.54015 .72224.25271 2.27298.65644 3.26781.72618h.18159c.48568.0921 1.11321.22773 1.81545.0906 .51844-.10102 1.1696-.61614 1.81545-.99852-.0232.0592-.0691.0974-.0906.18159-.0543.211.0171.58877.0906.7262s.10977.15303.18159.27217l.18159.27217 .18159.0906c2.09083.70075 6.54493,2.06194 8.80498,2.36011 .67021.0882 1.34426.1558 2.08779.0906h.0906c.91708.0514 2.78213-.17029 4.53865-1.54314-.0407.13215-.088.31733-.0906.54464s.0865.52605.18158.63541 .18159.0818.27217.18158l.18159.27217h.27219c2.08353.26608 5.35387,1.06613 7.62492,1.0893 .6961.006 1.44434-.0232 2.17856-.18159h.0906c.94372-.065 2.64683-.51113 4.17556-2.08777-.017.0906.002.21494 0,.36309-.002.20546.0646.51307.18158.63541s.25476.17754.36309.27217l.18159.18158h.27217c2.113.029 5.20765.39783 7.44339.18159 .64068-.0622 1.3754-.14663 2.08779-.36311 .0448-.009.13278-.0818.18159-.0906 .91823-.16475 2.50529-.71529 3.81245-2.36009-.006.11914-.0345.27652 0,.45386 .0416.21292.23937.44345.36311.54464s.15708.19054.27217.27217l.27217.0906h.27216c2.08848-.18095 5.13602-.0296 7.35262-.45386 .65747-.12596 1.28983-.33172 1.997-.63541 .0149-.0213.075.002.0906,0 .49493-.13598 1.13273-.26955 1.72468-.72618 .39001-.30075.70789-.98712 1.08927-1.54313 .0262.19672.22426.51761.36309.6354s.23702.19076.36309.27217l.18159.0906h.27219c2.10983-.27826 5.09986-.39983 7.26182-.90772 .6212-.14579 1.33258-.33366 1.99702-.63541l.18159-.0906c.91011-.30695 2.23438-1.18066 3.26783-2.90475 .006.0723-.0232.1622 0,.27217 .0433.20354.3158.45681.45386.54464s.14813.11445.27217.18159l.27217.0906h.27217c2.03935-.4372 4.92444-.59202 7.0803-1.27084 .67096-.21143 1.35349-.53321 1.997-.90773 .0213-.009.0703.009.0906,0 .4902-.19863 1.02345-.4597 1.54313-.99849 .37326-.38696.6648-1.11711.9985-1.81545 .002.0526-.0107.10741 0,.18158 .029.18713.20908.53411.36309.63541s.23065.11616.36309.18159l.27219.0906h.27217c2.05356-.51767 4.89245-.89626 6.98953-1.63391 .67471-.23732 1.27827-.60367 1.90622-.99852 .0171-.009.0729.009.0906,0 .82631-.3663 2.03562-1.33021 2.90475-3.17704 .009.0746.0646.16071.0906.27217 .0426.1818.28843.44428.45386.54464s.22221.1234.36309.18159l.27217.18158 .18159-.0906c2.0027-.64977 4.93426-1.28045 6.98952-2.17856 .68855-.30081 1.91477-.88722 2.63243-1.45236 .0296-.0232.0631-.068.0906-.0906 .43803-.26173.91975-.58886 1.36159-1.18004 .47328-.63324.90257-1.46434 1.18004-2.81397v-.0906-.0906c-.0149-.81458-.21185-1.55174-.27217-2.3601 .11701.72731.25331,1.31103.36309,2.08777v.0906l.0906.0906c.1882.48227.11914.55433.27217.90772 .0767.17669.28059.38244.45387.45387s.30735.14407.45386.18158h.27217l.27217-.0906c1.89729-.92946 5.09108-2.11991 6.98952-3.3586 .343-.22366.90741-.64777 1.45237-1.08927 .50744-.41109.9506-.81095 1.27083-1.18005l.0906-.0906c.74837-.67354 2.15406-2.42692 2.36009-4.81099 .0799.14344.18137.27886.36309.45389 .16177.15558.48681.26432.63543.27217s.22686-.002.36309,0h.27217l.18159-.18159c.96964-.7934 2.68408-2.65738 4.3571-4.62942s3.21836-3.9026 3.81247-4.99251c.21901-.40186.61339-1.32832.9985-2.26934 .19267-.47051.39919-.95172.54463-1.36159 .13299-.37522.22571-.60608.27217-.90772 .002-.029-.002-.0627 0-.0906 .16731-.60095.45917-2.06245.54466-3.7217 .0874-1.69885.0362-3.60273-1.18007-4.81097h-.0906l-.0906-.0906c-2.66759-1.6721-5.62462-3.15353-8.53266-4.26633 2.72603.94078 5.46423,2.31228 8.44189,3.63092l.0906.0906h.0906c.51778.097.47784.15793.90775.18158 .21494.0107.60652-.0793.72618-.18158s.17157-.17626.27216-.27217l.18159-.18159v-.27217c.0676-.66198.00051-1.71909-.0906-2.99551s-.18116-2.76596-.36309-4.26634-.41669-3.0164-.63541-4.26633-.47507-2.18877-.7262-2.81397c-.14173-.35271-.37686-1.08413-.72618-1.81545-.32875-.68831-.63894-1.27567-.9985-1.72468-.0149-.0232-.0759-.0671-.0906-.0906-.51652-.82927-1.85778-2.45763-4.08478-3.08626 .12788-.0507.25705-.10785.45386-.27219s.25648-.4314.27217-.54464 .0659-.15218.0906-.27217v-.27217l-.0906-.27217c-1.07717-1.95718-3.78943-6.4418-5.3556-8.16957-.44617-.49216-.92638-1.09826-1.54314-1.54315l-.0906-.0906c-.79945-.74468-2.3458-1.86045-5.08328-1.54314h-.0906-.0906c-.39406.13833-.70157.394-1.08927.54464 .31707-.16006.48711-.3844.81695-.54464h.0906l.0906-.0906c.39749-.32408.43545-.31057.72618-.54463 .14536-.11701.34659-.44415.36309-.63543s.009-.21185 0-.36309v-.27217l-.18159-.27217c-1.44539-1.49833-2.71787-3.38902-4.3571-4.90174-.52805-.48724-1.5205-1.36259-2.36009-1.81547-.0149-.009.0149-.0827 0-.0906-.0171-.0149-.0718.0149-.0906,0-.65793-.46275-1.47604-.89769-2.90474-.81695-.172.009-.50239.0737-.72618.0906 .14578-.12916.27624-.55414.27217-.72618s.0149-.22106 0-.36309v-.27217l-.27217-.18159c-1.54486-1.45552-3.33836-3.53376-5.08329-4.90176-.5182-.40619-1.0993-.92687-1.81547-1.27082-.0171-.0106-.0735.0107-.0906,0-.68573-.45324-1.66656-1.05798-3.26783-.99849-.19118.006-.43349.0656-.63541.0906 .13278-.1688.19949-.48019.18159-.63541s-.0678-.22628-.0906-.36309l-.0906-.27217-.18159-.18159c-1.58857-1.32761-2.91862-3.11195-4.7202-4.44787-.56669-.42019-1.21491-.87478-1.90624-1.18007-.0213-.0107-.0718.0107-.0906,0-.67477-.41914-1.54064-.87665-2.99552-.72618-.14152.0149-.30693.0646-.45386.0906 .10081-.18542.19715-.40991.18159-.54463-.017-.15516-.0676-.22629-.0906-.36309l-.0906-.27217-.18159-.18159c-1.60588-1.34211-3.10528-3.13507-4.90174-4.44788-.56166-.41038-1.20485-.87511-1.90624-1.18004-.0171-.0107-.0718.0107-.0906,0-.66901-.41038-1.53556-.8875-2.99551-.7262-.16433.0171-.36904.0575-.54464.0906 .10465-.18265.28816-.40491.27219-.54464-.017-.15899-.0665-.22513-.0906-.36311l-.0891-.26839-.18158-.18159c-1.61196-1.32819-3.01534-3.04488-4.81097-4.35711-.52965-.38698-.90515-.70465-1.54313-.99849-.017-.0107-.0723.0106-.0906,0-.65165-.42179-1.52044-.94639-2.99552-.81696-.17754.0149-.36605.0554-.54464.0906 .0665-.0831.14984-.14471.18159-.27216 .0394-.15985.10081-.29199.0906-.36309-.0213-.14238-.0703-.14088-.0906-.27217l-.0906-.27219-.18159-.18159c-1.56308-1.34812-2.84389-3.17111-4.62942-4.53865-.57748-.44225-1.23725-.87443-1.90624-1.18004-.0232-.0149-.0671.0149-.0906,0-.44884-.28438-.91033-.53532-1.54314-.54464-.39595-.006-1.03012.16667-1.54315.27217 .13065-.15793.27509-.47773.27217-.63541-.002-.17711.017-.21988 0-.36309v-.27217l-.27217-.18158c-1.5299-1.4182-2.9102-3.30294-4.62942-4.72022-.4895-.40346-.61593-.47136-1.08927-.72618-.0171-.0149-.0722.0149-.0906,0-.67203-.49851-1.54627-1.02209-2.99552-.9985-.18393.002-.42856.0733-.63541.0906 .15133-.14727.27769-.57023.27217-.72618s.0107-.2254 0-.36309v-.27217l-.18159-.18158c-1.47035-1.46319-2.13393-2.81536-3.72169-4.35711-.50301-.48837-1.05006-.82324-1.63391-1.18004l-.0906-.0906c-.61056-.50062-1.44901-1.04622-2.90474-1.08927-.15303-.006-.37253-.002-.54464,0 .15026-.13044.25911-.45853.27217-.63541s.006-.21641 0-.36309v-.27217l-.18159-.18159c-.68952-.75209-1.06378-1.4219-1.45236-2.08779s-.79982-1.34027-1.54315-2.17854c-.44589-.50282-.87081-1.0268-1.45236-1.45238l-.0906-.0906c-.36476-.34474-.77734-.6703-1.36159-.81695-.16795-.0422-.53202.0232-.7262,0 .006-.0213-.002-.0738 0-.0906 .0232-.14728-.0149-.22773 0-.36309v-.27219l-.0906-.18159c-1.15385-1.72332-1.46882-3.16901-2.72318-4.99251-.20418-.29692-.31942-.40975-.45389-.54464-.12105-.12148-.27159-.18478-.45386-.36309-.0149-.0232-.0744.0213-.0906,0-.33246-.43361-.67462-.7993-1.18004-.90772-.2941-.0631-.92073-.12639-1.36159-.18159 .17455-.0938.38417-.21228.45386-.36309 .085-.18393.14109-.30712.18159-.45389v-.27216l-.0906-.18159c-.44027-.94087-.4623-1.32838-.54464-1.81545s-.24049-1.14778-.6354-2.17857c-.25126-.65516-.45052-1.41924-.90773-2.08776l-.0906.0906c-.0985-.20504-.10337-.45845-.27217-.63541-.19906-.20823-.50834-.29715-.7262-.36309-.18905-.0571-.64658-.2012-.90773-.27217 .17179-.0867.38434-.16518.45387-.27219 .0961-.14791.11551-.23353.18158-.36309l.0906-.27217v-.27217c-.2324-.97563-.12959-1.01233 0-1.36161s.32796-1.0391.18158-2.17854c-.0232-.1769-.029-.14514-.0906-.36309-.009-.0262.00071-.18009 0-.18159s-.0801.0149-.0906,0c-.006-.0171-.00034.002-.0906-.0906-.002-.0262.006-.0639 0-.0906l-.0906-.0906c-.0335-.14322.0107-.3045-.0906-.45386-.19054-.28001-.47322-.38374-.63543-.45386-.10806-.0467-.40508-.29214-.54464-.36309 .1411-.0262.28439-.036.3631-.0906 .15707-.11019.16325-.16966.27218-.27219l.27217-.18159v-.27217c.0567-.51028.13193-.77471.18159-.90773s.009-.18094.0906-.27216 .29559-.25971.45386-.54464 .32138-.63031.45387-1.18006c.0582-.25446.0213-.5582 0-.27217 .14898-.86276 0-1.45643 0-2.17869-.14962-.77488-.51734-1.5811-1.27082-2.7232l-.0906-.0906v-.0906c-3.73465-3.5892-7.78792-5.72701-11.34663-7.62494 9.46971-6.10139 14.58846-16.3822 17.88228-25.87031 1.7046-4.91015 2.9654-9.58371 4.08478-13.34362s2.24572-6.57478 3.26784-7.62494l.0906-.0906 5.3556,2.54165c.46592.30953.70143,1.01357.81697,2.17854s.0648,2.6683 0,4.26633c-.12916,3.1961-.27886,6.79857 1.72468,9.16807l.0906.0906 .0906.0906 261.33546,127.26373 .0906.0906h.0906c3.81047,1.01116 6.58692.96858 8.71421.27217s3.50675-2.04725 4.53865-3.44938l.0906-.0906v-.0906l214.85895-493.71707c.34028-.34975.56535-.76893.63541-1.27081 .0921-.66086.0618-1.40309-.0906-2.26934-.30604-1.7325-1.067-3.90665-2.17855-6.08178-2.14631-4.19992-5.72519-8.46868-10.4389-9.98503-1.08218-2.9369-.9475-6.57556-1.81545-9.98504-.88324-3.4695-3.05034-6.67855-8.53267-8.26032l-246.44867-51.92216h-.0906c-3.87786-.34672-6.92608.15772-9.25884,1.36159-2.29125,1.18241-3.80819,3.07608-4.7202,5.26483-.017.0399-.075.0512-.0906.0906-2.65578,4.9735-5.27525,11.05573-7.53414,14.06983-2.06925-.0755-4.6819-1.47593-7.35262-2.17856-1.40049-.36844-2.85223-.44619-4.26633.0906s-2.65732,1.67306-3.7217,3.72169l-3.81247,7.53417c.23675-2.52934.48876-5.20471.36309-9.44039-.16666-5.61997-.72345-11.97074-2.26931-16.97455l-.0912-.18138-.18159-.18158c-3.98713-3.72123-8.07451-6.94275-12.70822-8.26033h-.0906l-76.70317-13.61597c-.99353-.11914-1.87638-.2347-2.63242-.27216l-.00015-.00015z" fill="none" stroke="#000" stroke-width="5.8095"/>
 <path d="m665.54 258.51-219.74 495.15" fill="#fff" stroke="#000" stroke-width="1.4524"/>
 <path transform="matrix(2.9047 0 0 2.9047 -200.24 -717.17)" d="m240.67 417.48a3.9143 3.6618 0 1 1 -7.8287 0 3.9143 3.6618 0 1 1 7.8287 0z" fill="#fff" stroke="#000" stroke-linecap="round" stroke-linejoin="round" stroke-width=".5"/>
 <path transform="matrix(5.4363 0 0 5.4363 -820.88 -1724.2)" d="m240.67 417.48a3.9143 3.6618 0 1 1 -7.8287 0 3.9143 3.6618 0 1 1 7.8287 0z" fill="#fff" stroke="#000" stroke-linecap="round" stroke-linejoin="round" stroke-width=".26716"/>
 <path transform="matrix(5.4363 0 0 5.4363 -849.48 -1661.8)" d="m240.67 417.48a3.9143 3.6618 0 1 1 -7.8287 0 3.9143 3.6618 0 1 1 7.8287 0z" fill="#fff" stroke="#000" stroke-linecap="round" stroke-linejoin="round" stroke-width=".26716"/>
 <path transform="matrix(5.4363 0 0 5.4363 -875.16 -1596.5)" d="m240.67 417.48a3.9143 3.6618 0 1 1 -7.8287 0 3.9143 3.6618 0 1 1 7.8287 0z" fill="#fff" stroke="#000" stroke-linecap="round" stroke-linejoin="round" stroke-width=".26716"/>
 <path d="m490.19 486.14c-6.2795 0-11.347 4.746-11.347 10.62 0 3.5591 1.8506 6.7834 4.7202 8.7142 1.2174 0.41629 2.5318 0.63541 3.9032 0.63541 6.2796 0 11.347-4.746 11.347-10.62 0-3.628-1.9375-6.7945-4.9017-8.7142-1.1616-0.37449-2.4241-0.6354-3.7217-0.6354z" fill="#fff" stroke="#000" stroke-linecap="round" stroke-linejoin="round" stroke-width="1.4524"/>
 <path d="m468.95 526.8c-11.752 0-21.241 8.8851-21.241 19.879 0 7.2092 4.0323 13.572 10.167 17.065l0.27217 0.0906c2.4753 0.94294 5.2413 1.4524 8.0788 1.4524 11.752 0 21.241-8.8851 21.241-19.879 0-7.2222-4.1048-13.576-10.257-17.065-0.0799-0.0454-0.1916-0.0465-0.27216-0.0906-2.4734-0.94125-5.1532-1.4524-7.988-1.4524z" fill="#fff" stroke="#000" stroke-linecap="round" stroke-linejoin="round" stroke-width="1.4524"/>
 <path d="m440.36 589.07c-11.752 0-21.332 8.9759-21.332 19.97 0 7.2092 4.1231 13.572 10.257 17.065l0.27217 0.0906c2.4753 0.94294 5.1506 1.4524 7.988 1.4524 11.752 0 21.332-8.8851 21.332-19.879 0-7.2222-4.1047-13.576-10.257-17.065-0.0799-0.0454-0.19182-0.0465-0.27217-0.0906-2.4763-0.94383-5.1491-1.5431-7.988-1.5431z" fill="#fff" stroke="#000" stroke-linecap="round" stroke-linejoin="round" stroke-width="1.4524"/>
 <path d="m414.67 654.43c-11.752 0-21.332 8.8851-21.332 19.879 0 7.2092 4.1231 13.572 10.257 17.065l0.27219 0.0906c2.4753 0.94293 5.2413 1.4524 8.0788 1.4524 11.752 0 21.241-8.8851 21.241-19.879 0-7.2222-4.1047-13.576-10.257-17.065l-0.18159-0.0906c-2.4945-0.96014-5.2141-1.4524-8.0788-1.4524z" fill="#fff" stroke="#000" stroke-linecap="round" stroke-linejoin="round" stroke-width="1.4524"/>
 <path transform="matrix(5.4363 0 0 5.4363 -875.16 -1596.5)" d="m240.67 417.48a3.9143 3.6618 0 1 1 -7.8287 0 3.9143 3.6618 0 1 1 7.8287 0z" fill="#fff" stroke="#000" stroke-linecap="round" stroke-linejoin="round" stroke-width=".26716"/>
 <path d="m441.6 476.14m7.0008 3.2967c0.34515 2.4661-1.512 4.7644-4.1481 5.1334s-5.053-1.331-5.3982-3.7971c-0.26987-1.9269 0.8051-3.7513 2.5455-4.633m7.0008 3.2967" fill="#fff" stroke="#000" stroke-linecap="round" stroke-linejoin="round" stroke-width="1.4524"/>
 <path d="m444.01 479.5 2.743-4.3302" fill="#fff" stroke="#000" stroke-width="1.4524"/>
 <text transform="matrix(.94612,.32382,-.42695,.91082,0,0)" x="620.46985" y="314.22662" font-family="Bitstream Vera Sans" font-size="9.0914">
  <tspan x="620.46985" y="314.22662">SET</tspan>
 </text>
 <path d="m462.14 537.89 1.39 5.599c1.2283 0.0563 2.202-0.64662 3.1636-1.3857 2.4941 2.5509 3.7236 6.5268 3.2446 9.9999-1.1979-0.4022-2.2396-0.30499-3.0025 0.69536l1.7346 5.3752c1.5845-0.86184 3.2856-1.0603 4.4575-4.2699 0.0149-5.9278-1.8702-10.713-5.06-15.131-2.9064-1.7485-3.8662-1.1614-5.9278-0.88251z" fill="#fff" stroke="#000" stroke-width="1.4524"/>
 <path d="m406.42 672.91 2.0783-3.6242 2.7004 1.6695-1.8825 3.1772 1.8825-3.1772 5.4008 3.3388c0.9583-0.9969 1.9625-2.4357 4.2524-1.1036 1.7491 1.0164 2.035 2.6969 0.88584 4.6047-0.46848 0.77987-2.2 2.1496-3.9898 0.94127-1.7306-1.1679-1.7201-2.6695-1.221-4.325" fill="#fff" stroke="#000" stroke-width="1.4524"/>
 <path d="m435.48159,605.78909c-.0769-.0384-.14706-.0149-.1867.0537l-3.49361,6.42653c-.0384.0769-.0149.14706.0537.1867l8.77896,4.77249c.0769.0384.14706.0149.1867-.0537l3.49365-6.42661c.0384-.0769.0149-.14749-.0537-.18756l-3.71042-2.01709-.90967,1.67325 1.04279.5668c.0232.084-.0232.16987-.1055.19374l-2.28357.67524c-.084.0232-.16987-.0232-.19374-.1055l-.67522-2.28349c-.0232-.084.0232-.16986.1055-.19374l.99434.54068 .90965-1.67334-3.9529-2.14892zm3.74049-6.4039 8.37857,4.55482c.14941.0816.20397.2661.12234.41608l-6.89876,12.69019c-.0816.1494-.26607.20396-.41528.12319l-8.37864-4.55496c-.14919-.0816-.20396-.26694-.12319-.41528l6.89872-12.69015c.0816-.14941.26695-.20461.41607-.12319z" fill="#fff" stroke="#000" stroke-linecap="round" stroke-linejoin="round" stroke-width="1.4524"/>
 <path d="m111.18 622.72c-5.273-3.9837-9.7739-3.5528-14.606-5.5535-10.169-2.1702-13.846-1.4143-15.861-0.30848l0.48342 5.8619 22.465 5.3183 7.519-5.3183v2e-5z" fill="#fff" stroke="#000" stroke-width="1.4524"/>
 <path d="m134.2 664.4c32.497-3.9877 26.099-43.783 32.678-48.693 4.5433 2.5313 8.0716 2.5925 9.4015 4.6683-5.2273 5.3706-6.1502 38.014-28.075 48.693l-14.005-4.6683z" fill="#fff" stroke="#000" stroke-width="1.4524"/>
 <path d="m111.75 591.39 54.555 24.781c-0.70176 0.76768-1.2962 1.6262-1.7247 2.9047-0.53711 1.6026-0.9452 3.503-1.3616 5.7187-0.83279 4.4313-1.6856 9.9364-3.2678 15.341s-3.8765 10.711-7.7157 14.978c-3.8071 4.2313-9.0985 7.4609-16.702 8.6234-0.0671-6e-3 -0.11765 2e-3 -0.18159 0-0.44906-0.029-0.8717-0.039-1.2708-0.0906h-0.1812c-0.94505 0.0906-1.7282 0.71695-2.4509 1.3616s-1.2979 1.3262-1.7247 1.9062c-1.0893 1.5251-1.5227 3.6134-2.0876 5.4462-0.48419 2.0525-0.75485 4.0226-0.45387 5.3556 0.0942 0.41785 0.22889 0.90236 0.45387 1.3616 0.10656 0.21757 0.27943 0.94895 0.54463 1.6339 0.13278 0.3425 0.35333 0.59559 0.54464 0.90772 0.085 0.13896 0.24981 0.23587 0.36309 0.36311-0.56736 0.44796-1.0635 0.9612-1.4524 1.6339-0.50287 0.87002-0.8881 1.8128-1.0893 2.5416-0.44581 2.2552-0.18649 5.3004 0.54463 7.8973 0.3655 1.2984 0.79438 2.507 1.4524 3.4494s1.558 1.6656 2.6324 1.8155h0.36309c-0.0367 0.0232-0.0537 0.0667-0.0906 0.0906l-0.0906 0.0906h-0.0906c-0.94646 0.97354-1.7892 2.2158-1.8155 3.8125 0.13428 2.3233 1.237 5.3705 2.7232 7.8065 0.74313 1.218 1.5333 2.2188 2.4509 2.9955 0.75832 0.64187 1.6525 0.94805 2.5416 0.9985-0.56405 1.332-0.6782 2.9071-0.36311 4.1756 0.70391 2.1408 2.0775 4.5379 3.7217 6.2634 0.82211 0.86273 1.7776 1.5459 2.7232 1.997 0.79647 0.37995 1.6097 0.40244 2.4509 0.27217-0.3219 1.2162-0.23123 2.4948 0.18158 3.6309h-0.0906v0.27218l0.0906 0.18159c0.98452 2.014 2.4978 3.9554 4.2663 5.3556 1.7132 1.3565 3.7266 2.1289 5.5371 1.4524-0.32319 1.3111-0.34853 2.7556 0.36309 4.0848 1.194 1.8798 2.9071 3.6529 4.7202 4.811 1.5793 1.0087 3.3152 1.4041 4.9017 0.90772-0.14024 1.1505-0.20482 2.3443 0.45386 3.4494v0.0906c1.2779 1.8218 3.0525 3.4731 4.9017 4.5386 1.6655 0.95967 3.4844 1.2834 5.0833 0.63543-0.0106 1.3502 0.26957 2.7666 0.99852 3.8124h0.0906c1.3885 1.7066 3.0626 3.1896 4.811 4.0848 1.5637 0.80061 3.2077 1.0514 4.7202 0.36309-0.0377 1.138-0.0818 2.3297 0.63541 3.3586h0.0906c1.3988 1.7193 3.1312 3.2551 4.9925 4.1756 1.6344 0.80823 3.3867 1.0334 4.9017 0.36309-6e-3 1.1199 0.0887 2.2702 0.81696 3.2678 1.4261 1.6744 3.1356 3.1343 4.9017 3.994 1.5434 0.75138 3.1528 0.92531 4.6294 0.27217-0.0311 1.1072-2e-3 2.2545 0.72618 3.2678 1.4195 1.6904 3.181 3.2064 4.9925 4.0848 1.5907 0.77132 3.2228 0.93678 4.7202 0.27217-0.0311 1.1071-2e-3 2.2545 0.7262 3.2678 1.4011 1.6685 2.8798 3.0345 4.4479 3.8125 1.3648 0.6771 2.8363 0.57733 4.2663 0-0.14429 1.1425-0.25676 2.3281 0.45389 3.4494v0.0906h0.0906c1.3002 1.7497 2.7155 3.2678 4.2663 4.1756 1.2682 0.74227 2.6946 0.56081 4.0848 0.18159-0.12105 0.31262-0.24341 0.63172-0.36309 0.99849-0.18414 0.56495-0.20077 1.3328 0.18159 2.0878 1.1074 1.836 1.8434 2.9377 2.9047 3.5402 0.71538 0.40606 1.7076 0.1882 2.6324 0.0906-0.0697 0.0584-0.10337 0.11125-0.18159 0.18158-0.19523 0.17584-0.4107 0.4774-0.54463 0.81698s-0.16348 0.66646-0.0906 1.0893v0.0906c0.033 0.13278 0.0592 0.17818 0.0906 0.27217-1.6256 0.74792-3.0471 1.4265-3.9032 2.3601-0.75636 0.82478-0.73323 2.0291-0.72618 3.2678-0.20631-0.17711-0.38442-0.35727-0.6354-0.54466-0.46361-0.34608-1.1672-0.57961-1.997-0.45386h-0.0906c-2.1122 0.48248-3.8584 1.12-5.1741 2.0878-1.0869 0.79952-1.524 2.0566-1.7247 3.4494-0.26432-0.24284-0.50135-0.50506-0.81695-0.7262-0.50084-0.35093-1.1848-0.56889-1.997-0.54464h-0.0906c-2.1864 0.22833-4.2006 0.7648-5.8095 1.7247-1.3838 0.82561-2.3993 2.1081-2.7232 3.6309-0.88481-0.67665-1.8376-1.3574-3.0863-1.3616h-0.0906c-2.188 0.15516-4.189 0.56904-5.8095 1.4524-1.3743 0.74909-2.1547 2.068-2.5416 3.5401-0.90689-0.77648-1.955-1.401-3.2678-1.4524-2.1701 0.0761-4.1141 0.3658-5.6279 1.0893-1.2673 0.60568-1.9928 1.806-2.4509 3.1771-0.81844-0.82365-1.7054-1.5702-2.9955-1.7247h-0.0906c-2.1797-0.0983-4.2066 0.0891-5.9002 0.72618-1.411 0.5308-2.3311 1.6334-2.9048 2.9955-0.15771-0.26927-0.25213-0.52831-0.45386-0.81695-0.34301-0.49069-0.90423-1.0036-1.7247-1.18h-0.0906c-1.0902-0.15111-2.0997-0.19992-3.0863-0.18159-1.4973 0.029-2.8476 0.31388-3.994 0.90772-0.82175 0.42567-1.3319 1.2763-1.8154 2.0878-0.0985-0.23237-0.2289-0.4701-0.36311-0.7262-0.262-0.50069-0.75996-1.0125-1.5431-1.2708h-0.0906c-1.5934-0.39741-3.0648-0.57808-4.4479-0.54464-1.9488 0.0471-3.5428 0.89733-4.6294 2.3601-0.0439-0.20567-0.11637-0.39572-0.18159-0.63543-0.14749-0.54331-0.59312-1.1817-1.3616-1.5431-1.8748-0.7173-3.7183-1.2466-5.3556-1.2708-1.3134-0.0213-2.3732 0.59361-3.3586 1.3616-0.39001-0.75035-0.84479-1.4871-1.6339-1.997-2.3568-1.286-4.0746-2.1221-5.8095-1.8155-0.69847 0.1234-1.2981 0.70423-1.9062 1.18 0.0213-0.1234-0.0149-0.21609 0-0.36309 0.0558-0.51714-0.0558-1.3193-0.63541-1.9062h-0.0906c-2.038-1.7788-3.5924-2.8359-5.3556-2.814-0.85825 0.0107-1.6722 0.41143-2.5416 0.90775 0.0213-1.1501-0.0697-2.3349-0.81695-3.3586-1.036-1.2182-1.8488-2.2028-2.7232-2.9047s-1.8292-1.1353-2.9047-1.0893c-0.40231 0.017-0.78963 0.22888-1.18 0.36309 0.0667-0.12255 0.1136-0.21814 0.18158-0.36309 0.23178-0.49498 0.34029-1.2329 0-1.997v-0.0906c-0.8911-1.6581-1.6652-2.9656-2.6324-3.9032-0.94605-0.91709-2.1827-1.4217-3.5402-1.3616 0.0599-0.0874 0.12234-0.17434 0.18159-0.27217 0.29631-0.48969 0.4652-1.1874 0.27216-1.997-0.65834-2.0694-1.4577-3.7375-2.5416-4.9017-0.90325-0.97021-2.225-1.2869-3.6309-1.3616 0.59018-0.99241 1.164-2.0751 0.9985-3.3586v-0.0906c-0.43404-2.1152-0.91174-3.9138-1.8154-5.2648-0.72448-1.083-2.0335-1.4583-3.3586-1.7247 0.24632-0.23992 0.485-0.43532 0.72618-0.72618 0.39191-0.47262 0.72247-1.1676 0.72618-1.997v-0.0906c-0.15153-2.1711-0.47149-4.0336-1.2708-5.5372-0.69225-1.3022-1.9808-2.0692-3.4494-2.4508 0.80297-0.81255 1.6206-1.6595 1.7247-2.9955v-0.0906c9e-3 -2.168-0.17136-4.0601-0.81696-5.6279-0.55068-1.3375-1.6895-2.2152-3.0863-2.7232 0.86156-0.77249 1.702-1.5978 1.9062-2.9047 0.17605-2.1719 0.10955-4.2878-0.45386-5.991-0.47678-1.4412-1.6274-2.3768-2.9955-2.9955 0.91951-0.70783 1.8075-1.4818 2.0878-2.814v-0.0906c0.2896-2.1607 0.29161-4.2343-0.18159-5.991-0.38444-1.4273-1.2916-2.5599-2.5416-3.2678 0.25853-0.14429 0.55987-0.2652 0.81697-0.45386 0.49263-0.36156 0.9453-0.94454 1.18-1.7247 0.47539-2.145 0.59018-4.2955 0.18159-6.0818-0.36145-1.58-1.4098-2.685-2.814-3.4494 1.0354-0.64577 2.1038-1.3404 2.5416-2.6324v-0.0906c0.54862-2.1262 0.78647-4.2584 0.45386-6.0818-0.29018-1.5907-1.3756-2.7188-2.7232-3.5401 1.0618-0.61913 1.9756-1.3577 2.4509-2.6324h0.0906v-0.0906c0.61137-2.1048 0.89002-4.1507 0.63541-5.991-0.22656-1.6378-1.0756-3.0477-2.4509-3.9032 1.0322-0.58008 2.0464-1.2227 2.5416-2.4509h0.0906v-0.0906c0.66716-2.089 1.0155-4.2033 0.81697-6.0818-0.16305-1.5427-0.92831-2.8062-2.0878-3.7217 0.29367-0.1266 0.6204-0.18734 0.90773-0.36311 0.55011-0.33638 1.0191-0.89783 1.3616-1.6339 0.78045-2.065 1.3128-4.279 1.18-6.2633-0.11701-1.7482-0.85971-3.2954-2.1786-4.2663 1.013-0.54319 2.01-1.1267 2.5416-2.2693 0.77405-2.0482 1.2709-4.123 1.18-5.991-0.0786-1.617-0.76895-3.019-1.997-3.994 1.0287-0.50195 2.062-1.044 2.6324-2.1786v-0.0906c0.84125-2.0364 1.3574-4.1708 1.2708-6.0818-0.0752-1.6603-0.76985-3.0769-1.997-4.0848 1.0534-0.44587 2.1092-0.92459 2.7232-2.0878v-0.0906c0.88268-2.0224 1.4752-4.1742 1.4524-6.1726-0.0213-1.7424-0.66582-3.315-1.9062-4.3571 1.0336-0.45248 2.0318-0.94997 2.6324-2.0878v-0.0906c0.8827-2.0224 1.4752-4.1742 1.4524-6.1726-0.0213-1.7424-0.66582-3.315-1.9062-4.3571 1.0534-0.44592 2.1092-0.92465 2.7232-2.0878v-0.0906c0.88185-2.0205 1.4752-4.1951 1.4524-6.1726-0.0232-1.9529-0.73611-3.7367-2.3601-4.7202-0.0213-0.0107 0.0213-0.0787 0-0.0906l-0.27219-0.18159-0.0906 0.0906c-0.0522-0.0377-0.12916 0.0369-0.18159 0-5.2219-3.7057-9.7494-3.5825-14.251-5.4464l-0.09058-0.0906c-1.8439-0.3935-3.3706-0.59764-4.811-0.81695 0.86732-7.0399 3.8779-11.561 7.6249-15.159 3.655-3.5095 8.0099-6.1348 11.891-9.3496l-1e-3 -4.2e-4z" fill="none" stroke="#000" stroke-width="5.8095"/>
 <path d="m107.52 582.86c-10.17 10.26-21.684 14.743-26.207 32.38-6.8962 13.111 2.7953 17.648 13.11 20.761 7.9838 0.65214 10.164-0.53796 14.524-0.99849 1.2193-0.418 2.2762-0.98782 2.9047-2.1786 1.7003-3.8959 2.1667-8.4407-0.63541-10.076-8.647 2.0377-23.31 5.9454-20.009-7.0803 2.0678-17.232 16.61-19.946 24.133-29.333l-7.8194-3.4753zm-30.616 46.242c-0.12085-0.0107-0.19459 0.0833-0.45386 0.27217-0.50909 2.1226-1.4457 4.1091-1.8154 6.1726-0.12319 0.68782-0.22106 1.3938-0.18159 2.0878-0.10699 1.0431-0.11978 1.9513 1.6339 3.9032 5.3868 3.8197 11.561 5.8919 16.067 7.1711 7.9838 0.65216 10.255-0.53797 14.614-0.9985 1.2193-0.41799 2.1854-0.9878 2.814-2.1786 1.7004-3.8959 2.1667-8.5315-0.63543-10.167-3.1408 1.1346-10.333 1.515-15.25 1.0893-5.9916-1.8942-10.375-3.6975-15.885-7.0803-0.54035-0.17839-0.78692-0.25968-0.90773-0.27217zm-2.1785 12.708c-0.1168-0.0352-0.19459 0.0833-0.45388 0.27217-0.50906 2.1226-1.4457 4.1091-1.8154 6.1726-0.12319 0.68784-0.22104 1.3938-0.18159 2.0878-0.10699 1.0431-0.11978 1.9513 1.6339 3.9032 5.3868 3.8197 11.537 5.8904 16.067 7.0803 7.9953 0.49408 10.164-0.4472 14.524-0.90775 1.2193-0.41797 2.2762-0.98778 2.9047-2.1785 1.7004-3.8959 2.1667-8.5315-0.63541-10.167-3.1408 1.1346-10.423 1.4242-15.341 0.9985-5.9916-1.8942-10.375-3.516-15.885-6.8988-0.54037-0.17839-0.70005-0.32803-0.81695-0.36309v1.5e-4zm-2.2693 12.708c-0.1168-0.0352-0.1038-9e-3 -0.36309 0.18159-0.50909 2.1226-1.4866 4.556-1.8154 6.6264-0.10955 0.69012-0.23472 1.3947-0.18159 2.0878-0.08632 1.0451-0.06735 2.0771 1.7247 3.994 5.4615 3.7124 11.628 5.5273 16.158 6.7172 7.9953 0.4941 10.174-0.63334 14.524-1.18 1.2108-0.44204 2.2998-1.1571 2.9048-2.3601 1.623-3.9289 1.8944-8.1684-0.90775-9.8035-3.1408 1.1346-10.325 1.3269-15.25 0.99852-6.028-1.7754-10.375-3.516-15.885-6.8988-0.54037-0.17839-0.7908-0.32803-0.90773-0.36309zm61.181 9.6219c-1.2828 0.12277-2.9238 1.9113-3.7217 2.9955-1.4114 2.2499-2.8282 8.0935-2.3601 10.167 0.0936 0.4146 0.18905 0.82486 0.36309 1.18 0.34774 0.71045 0.79732 2.7682 1.5431 3.0863 2.9738-1.5169 10.323-3.1699 15.25-2.9047 6.0484 1.6973 10.543 2.2334 16.43 4.9018 1.1165 0.21901 0.80346 0.43956 1.2708 0 0.24022-2.1689 0.68903-0.95818 1.18-2.9955 0.0232-0.10188-2e-3 -0.13939 0-0.18159-0.0639 0.049-0.12255 0.0738-0.0906-0.27217 0.26026-1.0155 0.35529-1.9859-1.0893-4.1756-4.76-4.5746-10.349-7.0584-14.433-9.3496-7.6115-2.49-9.9963-1.8854-14.342-2.4509l-1.5e-4 -1.5e-4zm-63.269 3.4494c-0.11765-0.0328-0.10742 0.0782-0.36309 0.27217-0.46701 2.1323-1.5497 4.7286-1.8155 6.808-0.08866 0.69313-0.07417 1.3966 0 2.0878-0.05435 1.0472-0.12468 2.0418 1.7247 3.9032 5.5717 3.5446 11.866 5.121 16.43 6.1726 8.0064 0.25066 10.193-0.86446 14.524-1.5432 1.1968-0.47863 2.1552-1.2301 2.7232-2.4509 1.5028-3.9763 1.8355-8.0426-0.9985-9.622-3.1178 1.1965-10.325 1.69-15.25 1.3616-6.028-1.7753-10.491-3.3532-16.067-6.6264-0.5438-0.16752-0.79014-0.33033-0.90773-0.36309v1.5e-4zm70.894 11.528c-5.8485 0.1769-7.9765 1.9387-11.71 2.814-1.1573 0.56663-2.2742 2.878-2.6324 4.1756-0.82403 4.1689 0.78159 11.806 3.994 12.254 2.4738-2.2421 8.9807-5.7376 13.797-6.808 6.2822 9e-3 10.622-1.3422 17.065-0.81695 1.125-0.17051 0.88846 0.11765 1.1801-0.45386-0.50571-2.123 0.44869-1.5523 0.18159-3.6309-0.0889-0.69289 6e-3 0.21554-0.18159-0.45386-0.11978-1.0414-0.2867-0.18862-2.2693-1.9062-5.8194-3.1171-12.068-4.0428-16.611-5.1741-0.99978-0.0488-1.9785-0.0262-2.814 0zm-72.709 1.8154c-0.1185-0.029-0.1136-0.0213-0.36309 0.18159-0.40197 2.1455-1.2774 4.2747-1.5431 6.3541-0.08866 0.69314-0.16475 1.3966-0.09058 2.0878-0.05435 1.0472-0.08696 2.5499 1.8154 4.3571 5.6722 3.3818 12.019 4.7997 16.611 5.7187 8.0106 0.0171 10.033-1.1932 14.342-1.997 1.1824-0.51314 2.1552-0.7762 2.7232-1.997 1.5028-3.9763 1.7005-8.5833-1.1801-10.076-3.0799 1.2907-10.227 1.994-15.159 1.8154-6.0791-1.5912-10.575-3.0705-16.248-6.1726-0.54864-0.15111-0.7892-0.24312-0.90773-0.27217v-1.5e-4zm88.141 10.257c-4.7-0.0467-9.0371 0.69325-12.527 1.0893-7.6312 2.429-9.0291 5.1525-12.708 7.5342-0.89829 0.92401-1.6118 1.9218-1.6339 3.2678 0.24517 4.2429 4.2334 11.724 7.4434 11.256 1.7484-2.8448 7.1664-7.9666 11.437-10.439 5.9933-1.8861 10.195-3.658 16.611-4.4479 1.0673-0.39474 0.91941-0.0171 1.0893-0.63541-0.92503-1.9769-0.43025-2.0368-1.18-3.994-0.25009-0.6524-0.5154-1.3325-0.90773-1.9062-0.44753-0.94809-0.36767-0.41388-2.814-1.3616-1.6326-0.24254-3.2443-0.34744-4.811-0.36309zm-89.684 2.9955c-0.11935-0.0262-0.21036 0.0633-0.45386 0.27217-0.33967 2.1563-1.0654 4.2678-1.2708 6.3541-0.06863 0.69542-0.20077 1.8553-0.09058 2.5416 3e-4 1.0486 0.05286 1.9592 1.997 3.7217 5.7492 3.2491 12.089 4.6344 16.702 5.4464 8.0088-0.16731 10.143-1.5471 14.433-2.4509 1.1702-0.54046 2.1288-1.2928 2.6324-2.5416 1.2933-4.0494 1.3796-8.2135-1.5431-9.6219-3.0413 1.3794-10.223 2.3049-15.159 2.2693-6.1228-1.4145-10.669-2.7822-16.43-5.7187-0.5528-0.13513-0.69766-0.24662-0.81695-0.27217zm98.307 6.1726c-6.5925 0.37132-12.551 2.8199-16.975 4.3571-6.9122 4.0462-7.6808 6.817-10.802 9.8943-0.69278 1.0868-0.68769 2.9597-0.36309 4.2663 1.3277 4.0378 5.3399 9.0287 8.4419 8.0788 1.2966-3.0773 5.9173-8.8272 9.7127-11.982 5.5918-2.8662 9.6623-5.1443 15.885-6.8988 0.99513-0.55216 0.83377-0.27014 0.90772-0.90772-1.2144-1.8138-1.5352-3.1747-2.7232-4.9017-0.39602-0.57567-0.32522-0.41648-0.81696-0.90773-0.61524-0.84903-0.68012-0.56544-3.2678-0.99852zm-99.487 7.0803c-0.11999-0.0232-0.12426 0.0578-0.36311 0.27217-0.28958 2.1636-1.0785 4.7141-1.18 6.808-0.03367 0.69794-0.03751 1.4954 0.09058 2.1785 0.02899 1.0482 0.09783 2.0112 2.0878 3.7217 5.8331 3.0959 12.232 4.4428 16.884 4.9925 7.9864-0.62015 9.9873-1.7971 14.251-2.814 1.1555-0.57119 2.0713-1.3708 2.5417-2.6324 1.1857-4.0822 1.1392-8.1002-1.8155-9.4404-3.0084 1.4497-10.133 2.4625-15.068 2.5416-6.154-1.2719-10.693-2.5537-16.521-5.3556-0.5558-0.12233-0.78786-0.24921-0.90773-0.27217zm105.02 0.90773c-6.3992 1.63-11.708 5.0911-15.704 7.5342-5.8942 5.4241-6.5498 7.8311-9.1681 11.347-0.51987 1.1794-0.31857 2.7439 0.18159 3.994v0.0906c1.8668 3.8189 6.0982 7.8203 9.0773 6.5356 0.9511-3.2012 4.9991-9.1851 8.2603-12.89 5.0808-3.6978 8.7291-6.4915 14.614-9.1681 0.90001-0.69647 0.84039-0.35702 0.81695-0.9985-1.475-1.6089-1.6047-2.6979-2.9955-4.2663-0.46363-0.52279-0.8832-0.96261-1.4524-1.3616-0.75267-0.73008-1.008-0.88871-3.6309-0.81697v1.5e-4zm9.0773 8.1696c-0.45167-0.0149-0.98426 1.7e-4 -1.6339 0.0906-6.1785 2.33-11.092 6.3012-14.796 9.1681-5.2636 6.0384-5.3877 8.8369-7.4434 12.708-0.33524 1.2445-0.36331 2.5348 0.27217 3.7217 2.279 3.5879 6.4948 6.8968 9.3496 5.3556 0.66642-3.2722 4.157-9.5486 7.0803-13.525 4.7364-4.1294 8.4946-7.0415 14.251-9.985 0.86719-0.73702 0.77899-0.35876 0.72618-0.99849-1.5472-1.5397-2.2178-2.8969-3.7217-4.3571-0.50132-0.48672-0.94579-0.82467-1.5432-1.1801-0.60374-0.50389-1.1867-0.95843-2.5416-0.9985l1.5e-4 1.5e-4zm-114.83 4.2663c-0.12063-0.0213-0.13001 0.0514-0.36309 0.27217-0.23208 2.1705-0.96013 4.9844-0.9985 7.0803-0.01066 0.69865 0.0341 1.318 0.18159 1.997 0.05946 1.0469 0.1379 1.9813 2.1786 3.6309 5.9237 2.9186 12.489 4.0586 17.156 4.4479 7.9602-0.8947 9.8384-2.0321 14.07-3.1771 1.1378-0.60578 2.1095-1.4479 2.5416-2.7232 1.0621-4.116 0.8105-8.0881-2.1785-9.3496-2.969 1.5287-10.055 2.5466-14.978 2.9047-6.216-0.92167-10.803-2.255-16.702-4.9017l-0.90775-0.18159v1.5e-4zm123.72 3.9032c-0.45182 9e-3 -0.98908 0.0614-1.6339 0.18159-6.0655 2.6107-10.995 6.8042-14.433 9.985-4.7131 6.4769-4.9318 8.9281-6.808 12.89-0.27797 1.2586-0.23558 2.4744 0.45386 3.6309 2.4411 3.4799 6.7327 6.5431 9.5312 4.9017 0.55007-3.2938 3.8457-9.8105 6.6264-13.888 4.5873-4.2948 8.2393-7.2932 13.888-10.439 0.84056-0.76731 0.80158-0.36104 0.72618-0.99852-1.6008-1.4839-3.0119-3.3867-4.6294-4.7202-0.5392-0.44442-0.47626-0.39849-1.0893-0.72618-0.62622-0.47573-1.277-0.83901-2.6324-0.81695zm10.348 7.6249c-0.5227-9e-3 -1.2612 0.16795-2.5416 0.45386-5.9694 2.824-10.747 7.229-14.07 10.53-4.4808 6.64-4.5286 9.0456-6.2633 13.071-0.23325 1.2677 0.31923 2.8895 1.0893 3.994 2.6826 3.2973 6.4302 5.8253 9.1681 4.0848 0.43174-3.3113 3.5398-9.8952 6.1726-14.07 4.4305-4.4562 7.9925-7.6376 13.525-10.984 0.81252-0.79687 0.7336-0.36415 0.63543-0.9985-1.6529-1.4256-2.9652-3.264-4.6294-4.5386-0.55476-0.42485-1.1807-0.80606-1.8155-1.0893-0.43903-0.2867-0.74811-0.44616-1.2708-0.45386zm-134.34 1.9062c-0.12148 6e-3 -0.22773 0.13533-0.45386 0.36309-0.16646 2.1765-0.57844 4.9843-0.54464 7.0803 0.01066 0.69866 0.0085 1.3235 0.18159 1.997 0.09548 1.0442 0.20333 2.6811 2.3601 4.1756 6.1228 2.4733 12.659 3.063 17.338 3.2678 7.9186-1.208 9.753-2.903 13.888-4.3571 1.0899-0.68807 1.9722-0.88916 2.3601-2.1786 0.91976-4.1501 0.48404-7.9972-2.5416-9.1681-2.9215 1.6175-9.8887 2.8312-14.796 3.3586-6.2439-0.7071-10.998-1.8894-16.975-4.3571-0.56181-0.0906-0.69566-0.18819-0.81697-0.18159zm143.24 5.6279c-0.45016 0.0394-0.99927 0.19715-1.6339 0.36309-5.8643 3.036-10.504 7.566-13.707 10.984-4.24 6.7961-4.22 9.2584-5.8095 13.344-0.18755 1.2752-0.0439 2.5264 0.72619 3.6309 2.6826 3.2973 6.9238 5.9774 9.6219 4.1756 0.35712-3.3204 3.1803-10.018 5.7187-14.251 4.3292-4.555 7.8874-7.6953 13.344-11.165 0.7944-0.81504 0.74786-0.45728 0.63541-1.0893-1.6847-1.3882-3.1184-3.1202-4.811-4.3571-0.56422-0.41228-0.81757-0.62452-1.4524-0.90772-0.65849-0.42995-1.282-0.84469-2.6324-0.72621zm-110.38 7.2618c-2.7941 1.8287-9.7319 3.8181-14.614 4.5386-6.2668-0.46028-10.923-1.1573-17.065-3.1771-1.1339-0.0976-0.8534-0.21494-1.2708 0.27219-0.0064 2.1828-0.47955 4.3519-0.36309 6.4449 0.039 0.69767 0.07374 1.4216 0.27217 2.0878 0.13683 1.0396 0.50099 2.7805 2.7232 4.1755 6.2285 2.1929 12.745 2.4585 17.428 2.4509 7.8554-1.566 9.6418-3.3523 13.707-4.9925 1.0575-0.73682 1.9013-1.4964 2.1786-2.814 0.56473-4.2129 0.10827-8.0423-2.9955-8.9865v1.5e-4zm120.46 0.18159c-0.44915 0.0497-1.0031 0.18308-1.6339 0.36309-5.7948 3.1673-10.219 7.8577-13.344 11.347-4.0862 6.8902-4.1308 9.3142-5.6279 13.434-0.159 1.2792 0.0232 2.4531 0.81695 3.5402 2.7564 3.2363 6.5483 5.6862 9.2588 3.9032 0.38025-3.3177 3.2711-9.9275 5.8095-14.161 4.3292-4.555 7.9542-7.7335 13.434-11.165 0.80009-0.80943 0.74344-0.45651 0.63541-1.0893-1.675-1.3998-3.2091-3.211-4.9017-4.4479-0.56424-0.41226-1.1744-0.82041-1.8154-1.0893-0.66806-0.41503-1.285-0.78428-2.6324-0.63541zm10.53 7.6249c-0.44949 0.0465-1.0019 0.18734-1.6339 0.36309-5.8166 3.1268-10.309 7.7669-13.434 11.256-4.0862 6.8902-4.1929 9.3249-5.7187 13.434-0.16752 1.278-0.061 2.4477 0.72618 3.5402 2.7336 3.2554 6.7298 5.7769 9.4404 3.994 0.38029-3.3178 3.3324-9.9454 5.9003-14.161 4.3608-4.5246 7.7727-7.7335 13.253-11.165 0.80006-0.80943 0.74347-0.4565 0.63541-1.0893-1.675-1.3998-3.0363-3.1992-4.7202-4.4479-0.56133-0.41618-1.1763-0.81597-1.8155-1.0893-0.6651-0.41967-1.284-0.77486-2.6324-0.6354zm-130.08 4.3571c-2.7082 1.9536-9.5882 4.2327-14.433 5.1741-6.2811-0.17541-11.02-0.62117-17.247-2.3601-1.1371-0.0462-0.78515-0.1428-1.18 0.36311 0.09357 2.1807-0.30224 4.3594-0.09058 6.4449 0.07055 0.69517 0.37285 2.352 0.63541 2.9955 0.23762 1.0212 0.52179 1.9004 2.814 3.177 6.3347 1.8634 12.843 1.7962 17.519 1.5432 7.7623-1.9754 9.4612-3.777 13.434-5.6279 1.0174-0.79118 1.7892-1.6653 1.997-2.9955 0.34318-4.2366-0.3061-7.9118-3.4494-8.7142zm140.52 3.3586c-0.48577 0.0171-1.0019 0.0968-1.6339 0.27216-5.8166 3.1267-10.376 7.7889-13.525 11.256-4.1341 6.8614-4.1021 9.3249-5.6279 13.434-0.16752 1.278-0.061 2.4477 0.72618 3.5402 2.7337 3.2554 5.6303 5.2496 8.4419 3.6309 0.57671-3.2892 4.0373-9.562 6.7172-13.707 4.4806-4.406 8.3048-7.3391 13.979-10.439 0.8467-0.76043 0.79645-0.36049 0.72618-0.99852-1.5888-1.4968-3.4335-3.6084-5.0833-4.9017-0.54996-0.43108-1.0931-0.88966-1.7247-1.18-0.65363-0.43734-1.5383-0.96188-2.9955-0.90772v1.5e-4zm-138.97 8.6234c-2.602 2.0927-9.2812 4.7972-14.07 5.991-6.2815 0.15388-11.028-0.0424-17.338-1.4524-1.1379 0.0149-0.90299-0.16305-1.2708 0.36309 0.2078 2.1727 0.13257 5.2064 0.54463 7.2618 0.13747 0.68515 0.25358 1.3657 0.54463 1.997 0.28293 1.0097 0.793 2.444 3.1771 3.5402 6.4601 1.3694 12.991 0.86702 17.61 0.0906 7.4921-2.8344 9.0708-4.4744 12.89-6.6264 0.95344-0.86738 1.7108-1.7439 1.8154-3.0863 0.0149-4.2508-0.72228-7.4422-3.9032-8.0788v1.5e-4zm149.96 0c-0.44489 0.0262-0.99257 0.0435-1.6339 0.18159-5.9919 2.7755-11.01 7.1484-14.251 10.53-4.3167 6.748-4.5869 8.9691-6.3541 12.981-0.24342 1.2657-0.26695 2.4029 0.45388 3.5402 2.5353 3.4119 5.4656 5.7487 8.3511 4.2663 0.73304-3.2577 4.3488-9.5187 7.3526-13.434 4.8194-4.0316 8.6176-6.7969 14.433-9.622 0.882-0.71908 0.85668-0.35785 0.81697-0.9985-1.5154-1.5708-2.7259-3.4802-4.2663-4.9017-0.51352-0.47379-1.7383-1.5046-2.3601-1.8154-0.63899-0.45842-1.2069-0.8016-2.5416-0.72618zm9.1681 9.8035c-6.2311 2.1865-11.748 6.0583-15.25 9.1681-4.8441 6.3788-5.0329 8.786-6.9895 12.708-0.3035 1.2526-1.0619 1.8849-0.45386 3.0863 2.1954 3.6399 2.8188 4.0357 5.991 3.3586 1.5584-2.9528 6.9266-7.335 10.439-10.802 5.3268-3.3327 10.352-4.5109 16.702-5.7187 1.0391-0.46364 0.77874-0.18819 0.90772-0.81695-1.0523-1.912-3.857-6.5256-5.2648-8.0788-0.46931-0.51767-0.96959-1.0596-1.5431-1.4524-0.76056-0.72177-1.9322-1.7545-4.5386-1.4524zm-156.86 1.7247c-2.433 2.2874-8.9912 5.2656-13.616 6.9895-6.225 0.85804-10.938 0.91957-17.338 0-1.1336 0.10145-0.94466-0.18969-1.2708 0.36309 0.37471 2.1504 0.53848 4.9669 1.0893 6.9895 0.18351 0.6742 0.64238 2.0355 0.9985 2.6324 0.38807 0.97409 0.80992 1.8954 3.2678 2.814 6.5429 0.89253 13.067-0.13214 17.61-1.2708 7.2448-3.417 8.6152-5.5052 12.164-8.0788 0.84826-0.97046 1.7187-1.3768 1.7247-2.7232-0.29598-4.2404-1.4086-7.3263-4.6294-7.7157zm3.0863 10.711c-2.1562 2.5499-8.2342 6.449-12.708 8.5327-6.1377 1.3469-10.784 2.0896-17.247 1.9062-1.1146 0.23005-0.91909-0.0418-1.18 0.54463 0.61753 2.0936 1.111 5.05 1.9062 6.9895 0.2652 0.64649 0.50214 1.3418 0.90773 1.9062 0.46955 0.93754 1.3455 2.501 3.9032 3.0863 6.6032 0.0213 13.003-1.767 17.338-3.5402 6.6848-4.4126 7.958-6.099 11.256-8.9865 0.75581-1.044 1.2614-2.2048 1.0893-3.5402-0.85444-4.1638-2.0207-6.8793-5.2648-6.8987zm164.12 0.18159c-6.5535 0.80167-12.898 3.1184-16.793 5.7187-5.6731 5.6545-7.072 6.9828-9.985 10.257-0.62012 1.1297-1.6811 1.0336-1.4524 2.3601 0.11701 0.46806 0.198 0.52494 0.27219 0.81695-0.0367 0.0107-0.0518-0.0149-0.0906 0-3.8805 1.7328-5.518 2.8807-4.9925 6.0818 2.8755 1.6973 7.4689 7.2942 10.53 11.165 2.7284 5.6596 3.8159 10.301 4.7202 16.702 0.41371 1.0601 0.10422 0.93049 0.72618 1.0893 1.9601-0.9602 5.2342-2.2133 6.9895-3.3586 0.58509-0.38182 2.194-1.6393 2.6324-2.1785 0.78163-0.69864 2.6665-2.4691 2.4509-5.0833-1.9784-6.2979-5.4112-12.393-8.8958-15.522-3.4421-2.047-5.3766-3.4457-6.9895-4.6294 2.6596 1.435 5.5624 3.1347 7.8973 4.5386 4.5491 4.334 6.4642 9.4974 8.805 15.522 0.64459 0.93748 0.35693 0.8043 0.9985 0.81698 1.6888-1.3819 6.9849-7.6001 7.988-9.4404 0.33434-0.61345 1.6425-3.667 1.7247-4.3571 0.28701-1.0083 1.4075-6.0485-0.45386-7.8973-5.5941-3.5065-12.576-6.3329-17.247-5.991-4.3125 1.1852-6.7064 1.54-8.805 1.8155 3.0591-0.70246 6.5896-1.4144 9.3496-2.4509 6.2194-0.87273 11.336 2.1026 17.247 4.7202 1.1184 0.20951 0.80721 0.35301 1.2708-0.0906 0.22164-2.1711-0.9437-12.035-1.7247-13.979-0.26025-0.64813-1.2701-2.9238-1.7247-3.4494-0.55175-0.89146-1.8376-2.9144-4.4479-3.1772zm-159.76 10.439c-1.9136 2.7366-7.5777 6.9232-11.71 9.6219-5.8835 2.2061-10.704 3.1309-17.156 3.5402-1.0888 0.33099-0.88313 0.029-1.0893 0.63541 0.80662 2.0282 1.7411 4.9562 2.7232 6.808 0.32743 0.61725 1.2377 2.1364 1.7247 2.6324 0.607 0.85493 1.7383 2.4722 4.3571 2.6324 6.5176-1.0583 12.469-3.855 16.43-6.3541 5.8164-5.5064 6.9302-7.3246 9.7127-10.711 0.57537-1.1533 1.4013-1.5042 1.0893-2.814-1.2886-4.0504-2.8496-6.2687-6.0818-5.991zm6.3541 8.805c-0.34607 0.0232-0.69635 0.0814-1.0893 0.18158-1.4415 3.0119-6.4756 8.0621-10.076 11.437-5.4105 3.1944-10.04 4.8072-16.339 6.2633-1.0202 0.50414-0.89428 0.1835-0.9985 0.81695 1.1266 1.8694 2.6144 4.7919 3.9032 6.4449 0.42965 0.55097 1.6994 2.053 2.2693 2.4509 0.75395 0.72851 1.4668 1.3526 4.0848 1.1801 6.331-1.8746 12.111-5.4387 15.704-8.4419 5.0328-6.2304 5.3702-8.7559 7.4434-12.617 0.34091-1.2428 1.1831-1.5841 0.63541-2.814-1.7605-3.2758-3.1147-5.0544-5.5371-4.9017zm125.45 0.90772c-0.42711 0.6898-0.41511 0.31083 0 0zm-8.0788 3.994c-4.1438 0.94653-6.785 2.2936-6.7172 5.5371 2.607 2.0869 6.4262 8.2024 8.805 12.527 1.7552 6.0336 2.3696 10.781 2.3601 17.247 0.25968 1.108-0.0488 0.93494 0.54463 1.18 2.0763-0.67362 4.9779-1.2484 6.8987-2.0878 0.64027-0.27973 2.0068-1.0084 2.5416-1.4524 0.90257-0.5337 1.7409-1.0609 2.2693-3.6309-0.12745-6.602-1.8366-13.181-3.994-17.338-4.9981-6.2582-6.8525-7.5547-9.985-10.62-1.099-0.67321-1.392-1.5633-2.7232-1.3616zm-110.2 2.4509c-0.58701 0.0262-1.2649 0.28668-1.997 0.6354-0.83029 3.234-4.5961 9.3383-7.7157 13.162-4.9378 3.885-8.899 6.5187-14.796 9.1681-0.90308 0.69229-0.83744 0.35701-0.81695 0.9985 1.4675 1.6155 3.5771 4.452 5.1741 5.8095 0.53236 0.45248 1.1052 0.86497 1.7247 1.1801 0.84758 0.6171 2.7417 1.8986 5.2648 1.18 5.7958-3.1626 10.665-7.8206 13.525-11.528 3.57-7.1693 4.0375-9.2254 5.5372-13.344 0.15985-1.2788-0.0232-2.4528-0.81696-3.5402-2.0651-2.4281-3.3224-3.797-5.0833-3.7217zm100.3 1.8154c-4.2279 0.44131-7.93 2.1147-8.0788 5.3556 2.462 2.2562 5.9342 8.4925 7.988 12.981 1.3058 6.1467 1.7117 10.978 1.2708 17.428 0.18543 1.1229-0.12169 0.89592 0.45387 1.18 2.1166-0.53356 4.9212-0.93831 6.8987-1.6339 0.65917-0.2318 1.3218-0.53129 1.9062-0.90773 0.96024-0.42125 2.3366-1.0256 3.0863-3.5402 0.44651-6.5884-0.82876-12.972-2.2693-17.428-3.8949-6.9995-5.7738-8.4132-8.4419-11.891-0.99291-0.82185-1.4681-1.5833-2.814-1.5431zm-11.71 3.994c-4.2401 0.30073-7.905 1.7591-8.1696 4.9925 2.3797 2.3428 5.7946 8.7248 7.5342 13.344 0.87919 6.222 1.2159 10.907 0.54463 17.338 0.14493 1.1288-0.11125 0.87548 0.45387 1.18 2.1343-0.45755 5.0808-0.64125 7.0803-1.2708 0.6665-0.20993 1.3097-0.46017 1.9062-0.81695 0.97369-0.38918 1.8074-0.80888 2.7232-3.2678 0.88518-6.544-0.16241-12.969-1.2708-17.519-3.3686-7.2677-5.0133-8.7876-7.4434-12.436-0.93592-0.8863-2.0122-1.5386-3.3586-1.5431zm-79.608 0.63541c-0.87418 0.0107-1.7112 0.32368-2.7232 0.9985-0.35938 3.3194-3.4976 9.5725-5.7187 13.979-3.9833 4.8587-7.977 7.9721-13.434 11.437-0.79483 0.81427-0.74738 0.45731-0.6354 1.0893 1.6834 1.389 5.5876 4.4723 7.4434 5.4464 0.61863 0.32462 1.2328 0.55465 1.9062 0.72618 0.96227 0.41611 3.0532 1.3485 5.3556 0.0906 4.9549-4.3637 8.6442-9.8244 10.62-14.07 1.908-7.7785 1.897-9.9945 2.4509-14.342-0.12638-1.2825 0.58277-1.7652-0.36309-2.7232-2.0012-1.7467-3.4448-2.6506-4.9017-2.6324v1.5e-4zm67.898 2.9047c-4.2482 0.14898-7.2842 1.0644-7.8065 4.2663 2.1847 2.5255 4.7938 9.1152 6.3541 13.797 0.63884 6.2512 0.45715 11.072-0.72618 17.428 0.0543 1.1368-0.17583 0.92205 0.36309 1.2708 2.164-0.28554 5.1304-0.42833 7.1711-0.90773 0.68023-0.15985 1.3756-0.32387 1.997-0.63541 0.99987-0.31582 2.537-0.93398 3.5402-3.3586 1.1186-6.5081 0.24747-12.903-0.54465-17.519-2.8598-7.4824-4.7823-9.0662-7.0803-12.799-0.90357-0.9192-1.9224-1.4905-3.2678-1.5431zm-59.819 0.9985c-0.84701 0.14962-1.6127 0.66164-2.4509 1.5431 0.38206 3.3169-1.3427 10.191-2.5416 14.978-2.8187 5.615-5.8807 9.3948-10.439 13.979-0.59551 0.96959-0.6118 0.67916-0.36309 1.2708 1.9484 0.98326 5.011 2.7576 6.9895 3.4494 0.65952 0.23063 2.4824 0.70442 3.177 0.72618 1.0296 0.198 1.9866 0.39502 4.0848-1.18 4.2776-5.0296 7.1663-11.134 8.5327-15.613 0.40357-3.9842 0.55229-6.4931 0.54464-8.5327 0.17349 3.0712 0.19949 6.5258-0.0906 9.2589-2.01 5.9528-4.5886 10.241-8.4419 15.431-0.45024 1.0451-0.51269 0.72096-0.18159 1.2708 2.0694 0.69355 6.5454 2.086 8.6234 2.3601 0.6927 0.0912 1.3056 0.16219 1.997 0.0906 1.0469 0.0586 3.1512 0.22948 4.9018-1.7247 3.2142-5.7678 4.5713-12.085 5.3556-16.702-0.21524-8.0067-1.6124-10.059-2.5416-14.342-0.54736-1.1668-0.14344-2.0595-1.3616-2.6324-3.6641-1.4018-6.9165-1.8514-8.7142 0.27217-0.34037-0.86813-0.87663-1.6306-1.7247-2.1785-2.3318-1.2724-3.944-1.9742-5.3556-1.7247l-1.2e-4 3e-4zm48.654 1.5431c-4.2464-0.19118-7.9586 0.63716-8.6234 3.8125 2.0696 2.6206 4.5673 9.3614 5.7187 14.161 0.0983 6.2829-0.0769 11.041-1.5431 17.338 2e-3 1.138-0.15985 0.89834 0.36309 1.2708 2.1746-0.18862 5.203-0.0599 7.2618-0.45386 0.68626-0.1315 1.3632-0.2591 1.997-0.54466 1.0121-0.27391 1.9832-0.56812 3.177-2.9047 1.6354-6.3977 1.3398-13.058 0.72621-17.701-2.5694-7.587-3.9989-9.2575-5.991-13.162-0.82718-0.98853-1.7494-1.6554-3.0863-1.8155zm-14.161 1.5432c-2.8497 0.0529-5.0766 0.94786-5.8095 3.2678 1.7988 2.8133 3.6886 9.8155 4.3571 14.705-0.52694 6.2613-1.1829 10.945-3.2678 17.065-0.10976 1.1327-0.30171 0.8482 0.18159 1.2708 2.1825 0.029 5.2662 0.3834 7.3526 0.18159 0.69549-0.0674 1.4303-0.13769 2.0878-0.36309 1.0331-0.17925 2.7878-0.44231 4.0848-2.7232 1.9196-6.3182 1.8455-12.84 1.6339-17.519-1.9065-7.7799-3.6307-9.4447-5.4464-13.434-0.78217-1.0244-0.86228-1.9861-2.1786-2.2693-1.0526-0.14579-2.0456-0.19928-2.9955-0.18159zm-12.254 0.45386c-2.1659 0.0522-3.8938 0.781-4.7202 2.6324 1.4675 2.9993 2.5238 10.134 2.6324 15.068-1.2349 6.1607-2.4982 10.768-5.2648 16.611-0.23762 1.1129-0.34131 0.79608 0.0906 1.2708 2.165 0.27654 5.4382 1.0679 7.5342 1.0893 0.69867 6e-3 1.41-0.0262 2.0878-0.18159 1.0463-0.068 2.9306-0.21958 4.4479-2.3601 2.5382-6.0958 3.1039-12.57 3.3586-17.247-1.1235-7.9306-2.6748-9.8288-4.0848-13.979-0.6764-1.0971-0.53686-1.9384-1.8154-2.3601-1.5466-0.38572-2.9668-0.57603-4.2663-0.54463h1.4e-4z" fill="#fff" stroke="#000" stroke-width="1.4524"/>
 <path d="m329.08765,284.06389-1.72467.54465c-3.21247,1.11364-5.90685,1.49314-9.34962,3.72168l-.18159.0906-.0906.18159c-.13065.25038-.28902.50092-.45386.81695l-.54466,1.08927h1.18007c1.46828.0537 3.05312.22251 4.53865.18159s2.9359-.32338 3.90324-1.36159h.0906v-.0906l1.81545-3.54015 .81695-1.63393z"/>
 <path d="m326.09 286.79-0.81695 1.6339c-0.0149 0.017-0.0742-0.0171-0.0906 0-0.5472 0.54033-1.4288 0.78121-2.7232 0.81698-0.74696 0.0213-1.6873-0.0371-2.5416-0.0906 2.057-1.12 4.0947-1.7352 6.1726-2.3601z"/>
</svg>
