<?xml version="1.0" encoding="utf-8"?>
<!-- Generator: Adobe Illustrator 22.0.1, SVG Export Plug-In . SVG Version: 6.00 Build 0)  -->
<svg version="1.1" id="Слой_1" xmlns="http://www.w3.org/2000/svg" xmlns:xlink="http://www.w3.org/1999/xlink" x="0px" y="0px"
	 viewBox="0 0 250 250" style="enable-background:new 0 0 250 250;" xml:space="preserve">
<style type="text/css">
	.st0{fill:#FFFFFF;}
	.st1{fill-rule:evenodd;clip-rule:evenodd;fill:#00BF22;}
</style>
<g>
	
		<image style="overflow:visible;opacity:0.1;" width="218" height="223" xlink:href="8DD1B8E9.png"  transform="matrix(1 0 0 1 16 14)">
	</image>
	<g>
		<g>
			<ellipse class="st0" cx="125.6" cy="121" rx="83.6" ry="84.9"/>
			<g>
				<path class="st1" d="M171.3,143.1c-2.5-1.4-15-8.2-17.3-9.2c-2.3-1-4-1.5-5.9,1.1c-1.8,2.6-7,8.3-8.5,10
					c-1.6,1.7-3.1,1.9-5.6,0.4c-2.5-1.4-10.7-4.5-20.3-13.8c-7.4-7.2-12.3-16-13.7-18.7c-1.4-2.7,0-4.1,1.3-5.3c1.2-1.1,2.7-3,4-4.5
					c1.3-1.5,1.8-2.6,2.7-4.3c0.9-1.7,0.6-3.3,0-4.6c-0.6-1.3-5.3-14.4-7.2-19.8c-2-5.3-4.1-4.5-5.6-4.6c-1.5-0.1-3.2-0.3-4.9-0.4
					c-1.7-0.1-4.5,0.5-7,3c-2.5,2.5-9.4,8.6-9.8,21.5c-0.5,12.9,8.3,25.7,9.5,27.5c1.2,1.8,16.8,29.8,42.6,41.3
					c25.9,11.5,26,8,30.7,7.7c4.8-0.3,15.5-5.8,17.9-11.8c2.4-6,2.6-11.3,2-12.4C175.5,145.3,173.8,144.5,171.3,143.1L171.3,143.1z
					 M123.9,17C68,17,22.7,63,22.7,119.8c0,19.4,5.3,37.6,14.5,53.1L19,228l56-18.2c14.5,8.1,31.2,12.8,48.9,12.8
					c55.9,0,101.1-46,101.1-102.8C225,63,179.7,17,123.9,17L123.9,17z"/>
			</g>
		</g>
	</g>
</g>
</svg>
